<?xml version="1.0" encoding="UTF-8"?>
<!DOCTYPE svg PUBLIC "-//W3C//DTD SVG 1.1//EN" "http://www.w3.org/Graphics/SVG/1.1/DTD/svg11.dtd">
<!-- Creator: CorelDRAW X7 -->
<svg xmlns="http://www.w3.org/2000/svg" xml:space="preserve" width="279.4mm" height="215.9mm" version="1.1" style="shape-rendering:geometricPrecision; text-rendering:geometricPrecision; image-rendering:optimizeQuality; fill-rule:evenodd; clip-rule:evenodd"
viewBox="0 0 27940 21590"
 xmlns:xlink="http://www.w3.org/1999/xlink"
 inkscape:version="1.3.2 (091e20e, 2023-11-25, custom)"
 sodipodi:docname="Wismilak Logo.svg"
 xmlns:inkscape="http://www.inkscape.org/namespaces/inkscape"
 xmlns:sodipodi="http://sodipodi.sourceforge.net/DTD/sodipodi-0.dtd"
 xmlns:svg="http://www.w3.org/2000/svg"
 xmlns:rdf="http://www.w3.org/1999/02/22-rdf-syntax-ns#"
 xmlns:cc="http://creativecommons.org/ns#"
 xmlns:dc="http://purl.org/dc/elements/1.1/">
 <defs>
  <style type="text/css">
   <![CDATA[
    .fil0 {fill:#006837;fill-rule:nonzero;fill-opacity:0.992157}
   ]]>
  </style>
 </defs>
 <g id="Layer_x0020_1">
  <metadata id="CorelCorpID_0Corel-Layer"/>
  <sodipodi:namedview id="namedview1" pagecolor="#ffffff" bordercolor="#000000" borderopacity="0.25" inkscape:showpageshadow="2" inkscape:pageopacity="0.0" inkscape:pagecheckerboard="0" inkscape:deskcolor="#d1d1d1" inkscape:document-units="mm" inkscape:zoom="0.73139029" inkscape:cx="504.51859" inkscape:cy="395.8215" inkscape:window-width="1920" inkscape:window-height="1017" inkscape:window-x="-8" inkscape:window-y="-8" inkscape:window-maximized="1" inkscape:current-layer="svg1"/>
  <g id="layer1" inkscape:label="Lapis 1" inkscape:groupmode="layer">
  </g>
  <g id="g3">
   <path id="path31" class="fil0" d="M5565 18321c138,424 263,865 482,1258 88,153 159,190 333,190 95,0 205,-16 269,-90 57,-68 122,-242 159,-330l144 -374c114,-330 260,-866 309,-1211l65 -385c23,-102 52,-137 129,-204 31,-31 68,-64 68,-113 0,-104 -106,-117 -186,-117l-332 0c-88,0 -274,-20 -274,121 0,170 251,90 251,350 0,250 -98,670 -167,920l-263 782 -327 -850c-68,-223 -199,-712 -199,-927 0,-181 188,-136 188,-265 0,-110 -79,-131 -174,-131l-685 0c-86,0 -189,9 -189,123 0,60 47,84 88,113 121,76 109,194 109,323 0,563 -158,1080 -363,1602l-268 -850c-61,-242 -154,-666 -154,-907 0,-92 17,-113 97,-156 49,-26 94,-57 94,-117 0,-118 -98,-131 -189,-131l-612 0c-102,0 -264,-16 -264,127 0,60 33,95 78,129 88,64 84,92 102,197l51 280c101,566 252,1225 478,1755 100,226 141,336 409,336 113,0 201,-24 270,-121 64,-90 146,-292 187,-405l286 -922zm2238 910c0,81 15,167 -69,210l-41 21c-49,31 -90,53 -90,121 0,102 102,129 184,129l719 0c84,0 186,-27 186,-129 0,-68 -43,-90 -92,-121l-41 -21c-84,-44 -68,-129 -68,-210l0 -1808c0,-78 -16,-166 68,-207l41 -23c49,-29 92,-53 92,-121 0,-102 -102,-127 -186,-127l-719 0c-82,0 -184,25 -184,127 0,68 41,92 90,121l41 23c84,41 69,129 69,207l0 1808zm2341 -1311c-215,-53 -477,-129 -477,-401 0,-246 258,-367 473,-367 620,0 590,537 794,537 95,0 140,-64 140,-156 0,-94 0,-248 -27,-340 -14,-53 -57,-82 -102,-110 -250,-129 -555,-195 -834,-195 -266,0 -545,53 -760,211 -217,158 -364,416 -364,684 0,250 129,465 332,606 162,109 420,178 614,211 135,27 362,76 483,137 121,57 189,162 189,295 0,303 -320,438 -582,438 -166,0 -344,-45 -485,-135 -125,-84 -178,-178 -256,-299 -53,-80 -109,-141 -213,-141 -109,0 -184,102 -184,207 0,229 260,432 450,522 223,104 477,145 721,145 307,0 598,-72 844,-258 231,-170 372,-434 372,-721 0,-219 -104,-424 -274,-563 -146,-118 -373,-190 -555,-231l-299 -76zm2981 651l-530 -1359c-57,-150 -76,-267 -258,-267l-737 0c-98,0 -215,3 -215,127 0,92 72,109 143,133 92,27 133,76 148,140 12,30 12,65 12,78l0 1816c-4,45 -12,92 -23,125 -28,69 -84,84 -145,106 -63,27 -94,53 -94,125 0,129 170,117 258,117l329 0c88,0 258,12 258,-117 0,-72 -32,-98 -96,-125 -61,-22 -117,-37 -143,-106 -12,-33 -19,-80 -23,-125l0 -1606 666 1557c67,147 117,159 284,159 191,0 207,-79 275,-239l612 -1520 0 1641c0,81 16,167 -67,210l-43 21c-48,31 -89,53 -89,121 0,102 101,129 185,129l718 0c84,0 185,-27 185,-129 0,-68 -41,-90 -90,-121l-43 -21c-82,-44 -66,-129 -66,-210l0 -1825c0,-100 8,-156 109,-186 73,-23 147,-45 147,-141 0,-86 -57,-134 -129,-134l-702 0c-172,0 -185,41 -250,195l-586 1431zm2016 660c0,81 15,167 -69,210l-41 21c-49,31 -90,53 -90,121 0,102 102,129 184,129l719 0c84,0 186,-27 186,-129 0,-68 -43,-90 -92,-121l-41 -21c-84,-44 -68,-129 -68,-210l0 -1808c0,-78 -16,-166 68,-207l41 -23c49,-29 92,-53 92,-121 0,-102 -102,-127 -186,-127l-719 0c-82,0 -184,25 -184,127 0,68 41,92 90,121l41 23c84,41 69,129 69,207l0 1808zm1289 0c0,81 16,167 -68,210l-41 21c-49,31 -92,53 -92,121 0,102 104,129 186,129l1698 0c170,0 201,-15 250,-174 33,-94 82,-242 82,-344 0,-72 -66,-125 -135,-125 -99,0 -185,114 -246,182 -162,178 -311,190 -537,190l-139 0c-217,-12 -270,-12 -270,-235l0 -1783c0,-78 -15,-166 69,-207l41 -23c49,-29 92,-53 92,-121 0,-102 -104,-127 -186,-127l-719 0c-82,0 -186,25 -186,127 0,68 43,92 92,121l41 23c84,41 68,129 68,207l0 1808zm2424 481c96,0 292,20 292,-121 0,-141 -196,-102 -196,-268 0,-121 106,-375 143,-508l1059 0 20 61c25,84 150,459 150,522 0,87 -162,72 -162,193 0,121 143,121 231,121l639 0c90,0 193,-19 193,-129 0,-56 -27,-82 -72,-109 -65,-37 -84,-49 -113,-121l-133 -393 -776 -1816c-79,-186 -123,-231 -337,-231 -138,0 -207,8 -275,133 -106,194 -198,381 -280,571 -193,438 -390,858 -533,1309l-137 423c-25,68 -53,84 -113,121 -41,31 -79,60 -79,113 0,149 171,129 272,129l207 0zm344 -1206l424 -1006 405 946 20 60 -849 0zm3084 135l295 -227c154,161 654,796 654,984 0,68 -132,76 -132,189 0,121 146,125 234,125l721 0c73,0 182,-8 182,-109 0,-88 -37,-102 -105,-141 -90,-45 -129,-109 -174,-192 -247,-439 -522,-856 -870,-1217l492 -508c118,-143 182,-235 348,-317 57,-27 125,-64 125,-137 0,-60 -27,-101 -88,-125 -33,-12 -89,-21 -150,-21l-465 0c-80,0 -174,21 -174,117 0,131 162,105 162,215 0,105 -356,442 -436,518l-619 494 0 -866c0,-78 -16,-166 68,-207l41 -23c49,-29 92,-53 92,-121 0,-102 -104,-127 -186,-127l-719 0c-84,0 -186,25 -186,127 0,68 43,92 92,121l41 23c84,41 69,129 69,207l0 1808c0,81 15,167 -69,210l-41 21c-49,31 -92,53 -92,121 0,102 102,129 186,129l719 0c82,0 186,-27 186,-129 0,-68 -43,-90 -92,-121l-41 -21c-84,-44 -68,-129 -68,-210l0 -590zm0 0z" aria-label="WISMILAK"/>
   <g id="g2">
    <path id="path12" class="fil0" d="M10527 11366c0,0 70,519 400,778 0,0 224,200 71,388l-412 448c0,0 -248,306 -48,671 0,0 83,142 12,248 0,0 -695,671 1979,1295 0,0 47,271 -530,153l-1614 -258c0,0 -1437,-225 -259,-1626 0,0 742,-907 -542,-1413l0 -153c0,0 365,12 436,129l365 -11c0,0 0,-672 142,-649m0 0l0 0 0 0z"/>
    <path id="path14" class="fil0" d="M10609 14099c0,0 836,613 1885,660l35 330c0,0 -2002,-483 -1920,-990m0 0l0 0 0 0z"/>
    <path id="path16" class="fil0" d="M17100 11378c0,0 -71,519 -401,778 0,0 -224,200 -71,389l413 447c0,0 247,307 47,671 0,0 -82,141 -12,248 0,0 695,671 -1978,1296 0,0 -48,270 529,153l1614 -260c0,0 1437,-223 259,-1624 0,0 -742,-908 542,-1414l0 -153c0,0 -365,11 -436,129l-365 -12c0,0 0,-671 -141,-648m0 0l0 0 0 0z"/>
    <path id="path18" class="fil0" d="M17017 14111c0,0 -836,612 -1884,659l-35 330c0,0 2002,-483 1919,-989m0 0l0 0 0 0z"/>
    <polygon id="path20" class="fil0" points="9419,10471 9502,10059 9832,10354 10279,10201 10162,10660 10538,10932 10032,11049 9949,11496 9608,11190 9172,11343 9266,10907 8948,10637 "/>
    <polygon id="path21" class="fil0" points="9436,5556 9332,5148 9756,5269 10092,4937 10187,5402 10644,5481 10239,5808 10360,6247 9919,6120 9593,6447 9488,6014 9084,5908 "/>
    <polygon id="path22" class="fil0" points="10728,3337 10797,2922 11148,3203 11602,3031 11500,3494 11899,3749 11383,3888 11316,4339 10952,4047 10510,4218 10589,3779 10251,3522 "/>
    <polygon id="path23" class="fil0" points="13638,2195 13837,1821 14065,2201 14537,2182 14291,2591 14571,2961 14053,2929 13844,3336 13608,2942 13147,2964 13365,2571 13141,2218 "/>
    <polygon id="path24" class="fil0" points="9173,7891 9377,7523 9602,7903 10075,7892 9824,8294 10079,8611 9584,8626 9370,9028 9137,8633 8665,8622 8897,8260 8678,7869 "/>
    <polygon id="path25" class="fil0" points="18227,10488 18145,10075 17815,10370 17367,10217 17485,10676 17108,10947 17615,11065 17697,11512 18039,11205 18475,11358 18380,10923 18699,10652 "/>
    <polygon id="path26" class="fil0" points="18210,5571 18316,5164 17890,5286 17554,4953 17460,5418 17003,5498 17408,5824 17287,6263 17728,6135 18054,6462 18158,6030 18563,5924 "/>
    <polygon id="path27" class="fil0" points="16918,3353 16850,2937 16499,3218 16045,3047 16147,3510 15748,3765 16264,3904 16331,4355 16695,4063 17137,4234 17058,3795 17396,3537 "/>
    <polygon id="path28" class="fil0" points="18474,7907 18270,7539 18044,7919 17571,7908 17822,8311 17568,8626 18063,8641 18277,9044 18510,8649 18981,8638 18750,8276 18969,7885 "/>
    <path id="path29" class="fil0" d="M15347 13886l-24 242 202 -52 -143 -198c0,0 -29,-47 -35,8m1325 116c0,0 50,40 -20,78l-210 71c0,0 -71,11 -33,-66 0,0 22,-51 -36,-77l-169 -117c0,0 -50,-23 -64,14 0,0 -29,48 -16,88l36 137c0,0 131,19 58,85l-217 68c0,0 -98,8 -21,-87l-147 -513c0,0 -31,-56 -93,-53 0,0 -53,-33 18,-83l191 -53c0,0 112,-25 56,59 0,0 -16,26 -7,79l58 184c0,0 20,66 56,-1l114 -239c0,0 70,-98 -24,-96 0,0 -58,-47 20,-78l149 -45c0,0 89,4 40,69l-158 296c0,0 238,140 350,258 0,0 33,28 69,22m-808 351l-180 47c0,0 -95,-17 -42,-76 0,0 38,-25 -3,-70l-65 -98 -280 59 -12 109c0,0 -14,100 52,91 0,0 42,55 1,65l-153 23c0,0 -51,17 -38,-34 0,0 38,-19 55,-189l85 -535c0,0 59,-174 191,-22 0,0 209,247 342,508 0,0 64,65 82,66 0,0 33,35 -35,56m-853 174l-464 31c0,0 -69,11 -11,-57 0,0 34,-7 23,-64l-40 -507c0,0 3,-63 -61,-64 0,0 -68,-62 37,-70l228 -18c0,0 85,14 0,89 0,0 -15,1 -18,38l38 497c0,0 -5,78 78,72 0,0 157,14 220,-107 0,0 44,-50 61,6l1 89c0,0 -9,54 -92,65m-660 56l-178 3c0,0 -52,7 -8,-57 0,0 26,-7 18,-64l-23 -506c0,0 3,-63 -45,-67 0,0 -50,-66 28,-69l173 -8c0,0 64,18 -1,89l27 596c0,0 -9,38 38,35 0,0 39,41 -29,48m-314 10l-247 6c0,0 -102,-16 -30,-73 0,0 54,-21 54,-73l-12 -372c0,0 0,-58 -36,-6l-150 378c0,0 -36,109 -103,0l-167 -403c0,0 -25,-63 -31,9l18 404c0,0 -12,57 37,57 0,0 119,48 -7,79l-168 5c0,0 -90,-15 -30,-78 0,0 54,5 54,-63l12 -465c0,0 12,-85 -60,-95 0,0 -66,-63 30,-74l192 0c0,0 49,6 67,42l126 340 42 6 144 -355c0,0 6,-38 54,-38l180 0c0,0 102,32 18,79 0,0 -36,5 -36,74l-5 470c0,0 -7,63 29,69 0,0 85,46 25,77m-1200 -531c0,0 266,53 231,280 0,0 -69,251 -370,197 0,0 -198,-40 -268,-203 0,0 15,-143 107,-38 0,0 34,135 175,166 0,0 161,45 206,-102 0,0 11,-96 -155,-116 0,0 -307,-51 -256,-306 0,0 52,-223 355,-178 0,0 222,35 213,152 0,0 -22,151 -93,29 0,0 -1,-93 -137,-118 0,0 -149,-21 -158,96 0,0 -29,94 150,141m-514 353c0,0 31,48 -42,40l-190 -42c0,0 -56,-6 5,-58 0,0 30,0 35,-57l97 -498c0,0 17,-61 -32,-76 0,0 -37,-76 47,-60l184 35c0,0 63,34 -22,87l-115 586c0,0 -18,33 33,43m-572 -110c0,0 -108,93 -164,-67l11 -292c0,0 2,-71 -46,-13 0,0 -133,202 -211,258 0,0 -97,95 -161,-39 0,0 -25,-429 -2,-557 0,0 27,-97 -25,-162 0,0 -13,-88 45,-71l206 57c0,0 69,47 -10,81 0,0 -58,28 -45,115 0,0 -32,252 -18,384 0,0 17,50 55,4 0,0 293,-368 169,-468 0,0 -4,-75 55,-58l164 45c0,0 85,35 16,77 0,0 -108,48 -53,398l-3 98c0,0 17,100 54,16 0,0 341,-406 174,-469 0,0 -29,-75 47,-54l123 34c0,0 79,39 6,69 0,0 -38,67 -69,136 0,0 -193,375 -318,478m2756 -7838l9 -157 62 0c0,0 71,117 -71,157m40 -267l0 -196c94,39 71,212 71,212l-71 -16zm-1610 181l8 -126 86 0 -8 118 -86 8zm1940 3227l-71 15c0,0 -94,-55 -94,-149l0 -251 -55 -7 0 86 -24 47 -8 110 -149 -9 -172 9c0,0 -79,7 -79,70 0,63 8,24 8,24l23 157 -55 16 -133 -8 -63 -71 -71 0c0,0 -78,79 -78,-118 0,0 -16,-188 87,-227l101 -71 95 -55c0,0 180,-86 204,-150 0,0 337,-297 447,-282 0,0 204,-15 189,173l-16 86c0,0 -47,213 -94,228l8 377zm274 479l-47 0 -23 102 -71 8 -126 -63c0,0 -148,-63 -212,-63l-47 16 -219 31 -173 -8 -338 -314 244 -7c0,0 31,39 165,46 0,0 212,-23 203,-125 0,0 -7,-70 -149,-55 0,0 -86,-8 -54,-94 0,0 8,-63 125,-32 118,32 24,-7 24,-7 0,0 400,141 565,298 0,0 291,180 283,432 0,0 -8,102 -102,7l-71 -23 -16 -55 94 0 -55 -94zm-1931 -1885l-8 -62 86 0 8 62 -86 0zm306 346l71 157 39 118 23 149 -78 -32 -134 -290 8 -149 71 47zm-149 -102l-24 -56 -39 0 -16 -133 71 24 55 63 40 102 -87 0zm-283 -675l-47 0 0 -55 87 16 23 62 32 -16 -8 149 -87 0 -23 -70 31 -24 -8 -62zm-78 -424l7 86 64 0 7 87 -47 7 -7 102 -71 -8 -8 -565 62 0 17 165 -32 8 8 118zm-1571 1633l102 -8c0,0 87,141 126,0l102 -16c0,0 47,24 47,87l-94 165c0,0 -102,54 -181,-24 0,0 -133,-55 -102,-204m1382 746c16,-197 -110,-337 -110,-337l16 -331c0,-220 86,-699 86,-699 24,-251 -290,-204 -290,-204 -251,0 -283,157 -283,157 0,71 32,71 32,71 94,16 125,180 125,180l0 723c-7,47 -385,299 -385,299 -55,109 -180,38 -180,38 -70,-70 -196,-55 -196,-55 -149,-7 -291,111 -291,111 24,94 196,23 196,23 95,-86 252,-39 252,-39 109,8 54,126 54,126 -102,102 -148,706 -148,706l-55 236 -8 235 39 974 47 8 86 7 0 79 -70 8 0 79 70 0 0 63 48 31 7 -118 -16 -236 0 -188 -46 0 -16 118 -8 63 -39 -8 24 -432c0,0 -40,102 -32,-502l0 -17c11,-597 181,-1122 181,-1122l31 47 -31 63 -8 142c-8,290 243,266 243,266 134,-8 212,-157 212,-157l63 8 16 101 -32 55 -31 307c-8,180 -158,738 -158,738 0,0 83,-11 0,15 -82,29 -62,424 -62,424l8 221c7,212 -150,454 -150,454l-86 0c-87,-30 -345,-478 -345,-478 -409,-549 -377,-1091 -377,-1091 78,0 94,149 94,149l110 354 110 125 31 -150 -94 -235c-165,-212 -282,-652 -282,-652 -64,-721 180,-1169 180,-1169 31,-142 212,-32 212,-32 79,126 228,-23 228,-23l78 -87c55,-70 197,-118 197,-118l148 0 87 -110 -134 8c-55,63 -227,63 -227,63l-79 -8 0 -63 157 -23 48 -47 148 -16c0,-62 -196,-62 -196,-62 -63,-9 -141,46 -141,46 -86,55 -338,55 -338,55 -141,0 -188,-197 -188,-197 -23,-148 235,-306 235,-306 -23,-140 126,-564 126,-564 361,-597 1170,-770 1170,-770l-8 519 47 102 40 109 47 94 24 86 172 17 39 86 -149 31 63 141 125 228 71 87 40 125 70 150 63 133 0 173 79 71 31 -40 47 118 23 70 56 40 0 244 39 31 8 133 23 94 -63 9 -714 -9 16 72 211 15 165 0 16 31 71 -15 8 -39 432 8 110 133 70 55 102 7 -15 48 -173 30 -518 0 0 87 141 8 432 0 15 -62 79 7 118 -47 31 -15 24 47 -40 38 16 71 142 -7 15 -134 47 -16 16 78 31 56 -7 283c-71,54 -762,125 -762,125 -455,94 -1178,-78 -1178,-78l-8 -597c126,-86 157,-361 157,-361m-86 -1233l-94 0 -24 -71c0,0 -173,-54 -204,-126 0,0 -16,-94 47,-94 0,0 306,16 275,157 0,0 39,127 0,134m-271 4970l-12 35 -377 -46 -247 -307 -24 -589c0,0 83,-23 118,59 0,0 118,94 141,-94 0,0 165,-224 189,-566l0 -435 47 -188 59 -400 71 0c0,0 129,1860 35,2531m28 -3541l-260 228c0,0 -220,156 -267,-134 0,0 16,-212 63,-212 0,0 0,-196 118,-243l283 -172c0,0 220,-95 314,157l-16 39c0,0 -125,-126 -243,-102l8 46c0,0 180,-7 243,142 0,0 70,102 -16,55 0,0 -78,-134 -244,-86l0 54 142 8 102 78c0,0 55,32 8,55l-47 -7 -87 -79 -125 9 0 31 94 0 126 102 -47 16 -149 15zm1397 3152l48 153 11 249 -11 81 -72 -35 -11 130c0,0 -966,11 -1178,-118l12 -2780c0,0 506,130 1036,118 0,0 71,82 36,235l70 0 0 -94 48 0 11 107 35 153 -59 23 -46 -106 -24 400 59 0 0 -153 70 0 13 153 11 342 -11 118 -95 23 12 118 11 35 72 0 22 660 -94 70 24 118zm1661 -400c0,0 -295,612 -577,706l-107 -58 -82 -36 -47 118 12 130 -47 47c0,0 -566,87 -671,39l11 -911 -35 -565 24 -683 -59 -271 -24 -353 177 -48 164 -23 224 -35 106 11 283 802 12 682 -36 295 -12 601 36 47 0 -283 47 35 59 12 47 -35 0 -59 -59 -24 0 -71 47 -35 24 -389 -47 1 -12 294 -35 71 -24 -118 24 -530 59 -106 0 -247 -59 -106 -36 -165 47 -48 12 107 59 -12 12 -400 -94 -36 -24 189 -59 -48 -129 -306 -59 -176 -24 -401 118 0 0 -70 129 23 378 176 -24 377 24 83 -71 12 -36 -83 -70 -47 -47 24 23 82 59 94 35 24 94 -24 -11 177 24 518 -13 248 48 -36 59 -212 0 -529 -12 -578 -12 -294c0,0 -118,-389 -306,-471l-12 -83 200 0 94 36 59 70 83 35 47 -23 -94 -71c0,0 188,-47 200,118l71 24c0,0 47,-236 -307,-236l0 -82c0,0 201,-200 283,-224l12 -59c0,0 -413,129 -448,306l-94 24c0,0 -188,70 -212,35l0 -400c0,0 142,-83 106,-472 0,0 14,-40 50,-59 12,-7 27,-11 45,-11 70,0 129,-12 129,-12l-59 -71 -177 12 36 -82 165 -306 0 -71c0,0 -248,282 -295,436l-35 35c0,0 -354,24 -401,118l-129 129c0,0 -177,189 -283,201l-129 35 0 -83 82 -70 118 -212 23 -94 107 -95c0,0 129,-118 105,-353 0,0 189,-236 153,-459l-59 0c0,0 -70,353 -199,459 0,0 11,306 -130,365 0,0 -141,142 -141,212l-107 177 -82 141 0 118 -106 0 0 -153 -70 -318 -95 -248 -71 -152 -105 -95 -59 -141 -48 -94 -47 -118c0,0 47,-212 -117,-223l0 -96 46 -46 13 -83 -59 -59 11 -200 -47 -118 0 -141c0,0 130,-330 -47,-376l-71 -13 0 -82 71 -12 24 47 70 -12 -23 -164c0,0 -106,-142 -118,-424l-36 -59 -11 -165c0,0 -47,-684 789,-766 0,0 671,35 801,471 0,0 117,318 -47,460l-24 424 -35 270c0,0 -94,201 35,389l47 283 -23 165 -24 141 -71 94c0,0 -93,106 -93,189l-36 129 -12 106 -11 83c0,0 -95,23 -118,141l-12 71c0,0 -12,129 -59,94l47 35 35 -59 48 -70 23 -94 71 -83 47 -94 29 -112 12 -82 76 -141 59 -113 42 -40c0,0 0,-113 71,-72 0,0 40,-64 -54,-135l-23 -65 47 -123 59 -24 0 -141 70 0c0,0 319,247 684,482 0,0 471,118 518,471 0,0 212,778 188,837l36 388c0,0 176,590 247,802 0,0 294,836 -36,1213 0,0 -200,105 -200,-94l0 -260 -59 12 0 530c0,0 12,435 -152,435 0,0 -107,-776 -95,-905l-71 -25 59 1107c0,0 -259,554 -282,660m11 279l0 180 -54 55 23 220c0,0 -306,165 -699,165l16 -102c0,0 401,-55 660,-628l63 -110 23 47c0,0 -47,47 -47,126l15 47zm-4746 -3859c0,0 59,-4876 3004,-5077 0,0 2732,-70 2991,5159 0,0 71,2615 -1154,4091l0 -644c0,0 157,-78 188,-345 0,0 71,-216 130,-287 0,0 165,-142 165,-401l23 -212c0,0 412,72 424,-706 0,0 -118,-624 -212,-990l-153 -518c0,0 -94,-459 -82,-564l-106 -402c0,0 -59,-565 -472,-765 0,0 -529,-165 -1012,-612 0,0 -118,-83 -48,-247 0,0 142,-13 142,-236l23 -177c0,0 36,-188 -94,-224 0,0 12,-106 71,-141 0,0 188,-860 -896,-931 0,0 -847,-47 -871,943l24 365c0,0 -36,82 -36,224 0,0 -11,258 153,258 0,0 189,130 -47,271l-294 118c0,0 -872,318 -1036,742 0,0 -118,495 -224,601 0,0 -330,306 -12,494l-71 307c0,0 -224,506 -224,753l-47 354 0 318c0,0 106,1095 672,1731l0 625c0,0 -931,-1120 -919,-3875m5139 4205l-31 -95c1131,-1476 1083,-4178 1083,-4178 -392,-5338 -3203,-5213 -3203,-5213 -3094,298 -3204,5167 -3204,5167 -94,2544 1068,4240 1068,4240l16 79 -691 -205 -346 863c786,817 3141,817 3141,817 2104,0 3188,-800 3188,-800 -157,-142 -361,-880 -361,-880l-660 205zm-2151 -4649l39 0 8 -118 -16 -55 -15 -133 -48 -55 -47 -48 -23 -86 -31 0 -8 63 -40 0 -15 -47 -40 -39 -15 -63 -47 86 23 102 0 55 55 32 31 24 0 -95 39 -16 40 16 31 62 23 17 0 55 32 23 0 63 -55 0 -16 -40 -15 -39 0 -39 -31 8 0 103 23 0 16 70 39 -16 47 16 16 94zm86 3093l-59 -11 -35 70 -24 118 71 0 47 -177zm-133 -1947l-16 -62 -55 -55 -23 79 46 46 48 -8zm-432 -243l47 15 0 -78 -39 -16 -24 -46 8 -48 -47 0 15 149 40 24zm483 3062c117,83 -47,200 -47,200l82 -11 47 -60 -11 -117 -71 -12zm1590 -110l70 0 0 -204 -47 0 -23 204zm-448 -1821l-7 62 0 149 62 -15 24 -149 -8 -63 -71 16zm-927 -2176l-46 0 0 79 -32 32 -71 125 -47 71 -70 55 0 149 55 -8 15 -134 95 -94 110 -102 31 -47 -8 -94 -32 -32zm1304 3565l-16 142 79 8 -16 -150 -47 0zm-63 369l0 63 -39 8 0 204 -31 31 0 142 55 -8 23 -39 8 -71 0 -86 39 0 -8 -244 -47 0zm228 -431l-39 0 31 173 63 -24 -16 -63 -39 -86zm-2387 -1728l86 -7 39 30 87 9 0 -102 -448 -16 0 39 228 16 8 31zm-1092 -1806c-101,-47 -219,24 -219,24l-228 7 -126 150c8,78 71,47 71,47l55 -79 94 -39c142,-8 142,55 142,55l62 39 126 0c125,0 180,63 180,63l111 0c62,0 -16,-86 -16,-86l-126 -8 -181 -55 -118 -16 0 -47 166 16c109,8 164,78 164,78l118 -15c0,-110 -243,-118 -243,-118l-32 -16zm864 2026l55 -8 32 32 447 15 39 -23 -63 -47 -39 0 -23 -32 -204 0 -330 8 63 16 23 39zm1225 -950l47 -31 0 -111 -47 17 0 125zm738 -581l-47 23 -15 79 -16 70 86 9 16 -87 15 -71 -39 -23zm-3431 1492l55 -8 8 -55 39 0 8 55 23 78 55 -7 0 -87 -55 -204 -46 23 0 87 -72 -8 9 -102 -79 32 -8 70c0,94 63,126 63,126m471 942l-78 8 15 94 23 55 32 31 8 -188zm1350 -1704l63 47 48 -47 -48 -117 -39 -48 -86 -8 16 111 46 62zm-1224 1971l-16 87 7 337 55 -8c-31,-196 17,-361 17,-361l23 -71 0 -126c0,-368 -110,-580 -110,-580l-39 7 -16 -15 24 172c125,260 55,558 55,558m-291 -1861l8 -63 -55 -15 -110 15 0 55 94 16 63 -8zm-141 298l47 16 0 -71 -55 0 8 55zm1955 -2238l-47 0 -8 150 63 -8 -8 -142zm605 -39l70 -7 -8 -63 24 -8 16 -95 -95 -7 -7 180zm-511 141l55 -15 8 -236 -23 -46 -9 -196 -54 -33 0 134 -71 -7 -16 -149 -23 70 -8 118 8 31 31 15 8 95 39 31 8 -93 39 30 0 197 8 54zm228 307l8 -291 -94 -7 -17 141 32 31 32 63 0 71 39 -8zm479 -1508l-31 -7 -24 125 47 -7 8 -111zm-63 448l-47 47 0 -63 -47 -15 -16 63 -39 38 23 103 55 -8 16 -71 55 8 -8 219 71 0 -8 -321 -55 0zm-290 887l-32 71 15 117 40 -46 0 -79 47 -24 -8 -196 32 0 0 -173 -79 0 -15 330zm-895 -2096l54 8 16 -56 -94 0 24 48zm816 1491l-24 48 -47 0 -47 31 -55 0 8 165 47 8 32 117 23 -94 8 -55 23 -7 56 23 -8 -180 15 -48 -31 -8zm424 -322l63 -23 0 -110 -63 8 0 125zm-322 291l-40 -8 0 87 48 -9 -8 -70zm126 -730c0,-118 -149,-165 -149,-165l-94 0 31 56c-8,54 55,100 55,100l8 236 31 -63 47 -22 8 -111 55 0 8 -31zm-103 605l9 94 46 16 -15 251 39 0 8 -299 -32 -47 -55 -15zm-275 -213l40 -38 47 0 39 94 -8 -346 -133 -39 -24 -48 142 0 15 -46 -219 7c16,87 -102,338 -102,338l70 -8 8 70 48 0 7 -54 63 0 7 70zm-117 -612l102 -8 -16 39 126 -8 40 -15 39 -40 -283 0 -8 32zm-78 -486l101 -9 17 -31 -87 -23c-125,-95 -354,-24 -354,-24l-7 63c204,-55 330,24 330,24m-94 22c-158,-7 -166,142 -166,142 110,-55 213,31 213,31l172 -7c-31,-149 -219,-166 -219,-166m-103 1783l-8 24 32 101 47 -22 -16 -103 -55 0zm47 -494l-39 0 0 -87 8 -63 -24 16 -39 23 -31 -62 -16 -71 -16 -134 -55 16 -7 142 39 47 23 110 24 133 0 86 47 24 0 -63 79 0 7 -117zm675 -1084l9 -79 212 0 -16 -54 -149 -32 55 -16 7 -31 -94 0c-157,-8 -196,173 -196,173 16,63 172,39 172,39m-675 1327l-55 7 8 126 79 -7 -8 -71 -24 -55zm935 -1626c31,-62 -31,-94 -31,-94l-79 0 -32 32c-204,0 -251,118 -251,118l173 -16c62,-40 220,-40 220,-40m-793 754l55 -7 8 -56 94 -7 7 -63 -109 0c-55,0 -150,181 -150,181l-70 7 0 118 47 -24 15 -55 87 -7 16 -87z"/>
    <path id="path32" class="fil0" d="M13944 15212c40,-2 67,-5 95,-5 81,-2 150,44 175,114 28,77 2,165 -64,215 -83,64 -219,65 -303,4 -43,-31 -71,-72 -81,-122 -38,-188 55,-364 236,-421 47,-14 97,-26 146,-9 9,3 20,12 22,21 4,16 -10,23 -23,28 -11,3 -22,6 -32,9 -11,3 -22,4 -33,7 -58,18 -101,56 -128,110 -6,11 -5,26 -10,49m-22 162c-1,52 5,85 25,113 28,41 77,40 101,-3 29,-55 32,-111 5,-168 -10,-21 -26,-35 -51,-37 -27,-1 -50,10 -61,34 -11,25 -16,52 -19,61z"/>
    <path id="path34" class="fil0" d="M13505 15355c-16,-1 -29,-3 -43,-2 -19,0 -38,4 -57,3 -102,-6 -169,-70 -175,-165 -6,-95 60,-186 153,-200 48,-7 100,-7 148,1 77,14 129,66 149,141 61,227 -92,446 -331,452 -18,0 -38,-5 -55,-11 -8,-3 -14,-17 -15,-27 0,-5 8,-16 14,-18 24,-7 49,-11 73,-17 66,-17 112,-57 136,-122 4,-10 2,-21 3,-35m-118 -168c1,6 3,28 9,49 9,28 27,48 58,50 31,2 53,-16 65,-42 25,-56 23,-113 -8,-166 -24,-41 -75,-41 -101,-1 -19,28 -23,61 -23,110z"/>
    <path id="path36" class="fil0" d="M14503 15445c53,27 102,20 150,5 13,-4 24,-13 37,-18 25,-10 46,5 42,31 -4,24 -9,50 -21,71 -8,14 -29,23 -44,33 -2,2 -5,2 -8,2 -105,0 -211,2 -316,-1 -37,-1 -51,-29 -39,-65 15,-43 45,-76 75,-108 49,-53 99,-105 145,-160 20,-23 33,-51 44,-79 6,-17 5,-39 1,-57 -8,-31 -39,-51 -69,-49 -31,3 -59,26 -63,57 -3,16 -1,33 -2,49 -2,42 -34,64 -74,51 -35,-11 -55,-38 -53,-75 2,-38 20,-69 49,-93 90,-73 220,-80 318,-15 48,33 66,90 51,147 -12,47 -37,86 -72,119 -38,36 -78,71 -116,108 -13,12 -22,29 -35,47z"/>
    <path id="path38" class="fil0" d="M12991 15575c-44,-3 -88,-4 -132,-9 -9,-1 -21,-12 -23,-20 -2,-8 6,-25 12,-27 60,-20 68,-65 66,-119 -3,-77 -2,-155 -1,-232 0,-39 -13,-64 -54,-70 -16,-2 -35,-7 -37,-27 -2,-26 20,-29 38,-35 37,-14 73,-28 109,-41 76,-28 100,-12 101,72 1,106 0,211 1,316 0,19 0,39 0,58 1,31 14,53 44,64 2,1 5,1 8,2 16,6 32,14 29,34 -3,26 -25,28 -44,29 -39,1 -78,0 -116,0 0,2 -1,3 -1,5z"/>
   </g>
  </g>
 </g>
</svg>
