<?xml version="1.0" encoding="UTF-8"?>
<svg version="1.1" xmlns="http://www.w3.org/2000/svg" width="423" height="187">
<path d="M0 0 C139.59 0 279.18 0 423 0 C423 61.71 423 123.42 423 187 C283.41 187 143.82 187 0 187 C0 125.29 0 63.58 0 0 Z " fill="#FBFBFB" transform="translate(0,0)"/>
<path d="M0 0 C2.79774894 2.20804909 5.44025128 4.52093104 8 7 C5.01499954 11.01826985 2.09979025 14.15524758 -2 17 C-5.34015218 17.08146713 -6.59572871 16.34481963 -9.125 14.1875 C-17.76380365 7.61449723 -28.25497932 6.66361921 -38.77832031 7.63916016 C-47.44374523 9.04657752 -55.34692157 14.02408992 -60.671875 20.94921875 C-67.54384143 31.56034338 -68.53768993 42.54711418 -67 55 C-64.78854146 63.61355422 -59.59413209 71.32065527 -52 76 C-41.87672631 81.90146 -30.88316482 82.59809609 -19.5 80.3125 C-13.19212277 77.94704604 -7.57754717 74.87739892 -4 69 C-2.68 65.37 -1.36 61.74 0 58 C-7.92 58 -15.84 58 -24 58 C-24 52.72 -24 47.44 -24 42 C-10.8 42 2.4 42 16 42 C16 60.93097641 15.74595293 69.71304002 5.8125 84.1875 C-4.74381771 94.74381771 -19.29454725 98.3245828 -33.7734375 98.38500977 C-48.26517302 98.11648302 -59.76781713 91.97876686 -70.25 82.1875 C-81.29581829 70.54039725 -84.60087871 56.75736592 -84.40454102 41.12597656 C-84.20200943 35.01832838 -83.52437331 29.62107417 -81 24 C-80.67128906 23.18789063 -80.34257812 22.37578125 -80.00390625 21.5390625 C-74.39448438 8.92271572 -63.63124095 -0.69770669 -51 -6 C-50.3090625 -6.30035156 -49.618125 -6.60070312 -48.90625 -6.91015625 C-32.93682646 -12.78931046 -13.85766192 -9.18202332 0 0 Z " fill="#049B4E" transform="translate(245,24)"/>
<path d="M0 0 C5.61 0 11.22 0 17 0 C17.01458252 2.10890625 17.02916504 4.2178125 17.04418945 6.390625 C17.09465846 13.37964675 17.16127489 20.36844857 17.23571491 27.35725403 C17.28033108 31.59215368 17.31960614 35.82695907 17.34643555 40.06201172 C17.37255635 44.15355804 17.41301982 48.24473992 17.46318626 52.33605957 C17.47979591 53.89240973 17.4913468 55.44882285 17.49761391 57.00524902 C17.53857474 66.24752194 17.82563262 73.62799367 22.625 81.75 C28.22339824 87.0537457 33.87610673 88.27824182 41.5 88.5 C48.50495885 88.28943009 54.31096353 87.40666578 59.58203125 82.5390625 C64.1466436 77.35618853 65.24908771 73.58940409 65.31884766 66.75292969 C65.32889328 66.03058136 65.3389389 65.30823303 65.34928894 64.56399536 C65.38010802 62.18329645 65.39715231 59.80270994 65.4140625 57.421875 C65.4327752 55.76848382 65.45234869 54.11510219 65.4727478 52.46173096 C65.52406434 48.11512883 65.56369258 43.76849575 65.60089111 39.42175293 C65.64093377 34.98421574 65.69202492 30.54680729 65.7421875 26.109375 C65.83894121 17.40633146 65.92232638 8.70323476 66 0 C71.61 0 77.22 0 83 0 C83.04528299 9.37984844 83.08193464 18.75962363 83.10362434 28.13955688 C83.11403716 32.49558593 83.12815043 36.85153595 83.15087891 41.20751953 C83.17269681 45.41558605 83.18458742 49.62357681 83.18975449 53.83169556 C83.19343423 55.43276155 83.20061969 57.03382366 83.21146011 58.63485718 C83.22609425 60.88686914 83.22797302 63.13857273 83.22705078 65.390625 C83.231492 66.66969727 83.23593323 67.94876953 83.24050903 69.26660156 C82.64440993 78.51979016 79.33966994 87.31727896 73.09765625 94.26171875 C61.01387344 104.27528178 46.01201277 105.17722408 31 104 C23.17107321 102.52363988 16.83099656 99.41262909 11 94 C10.44570313 93.48695312 9.89140625 92.97390625 9.3203125 92.4453125 C4.75129967 87.69444841 2.92759001 82.20782834 1 76 C0.67 75.01 0.34 74.02 0 73 C-0.0900654 70.65417398 -0.11756593 68.30580284 -0.11352539 65.95825195 C-0.11367142 65.24580322 -0.11381744 64.53335449 -0.1139679 63.79931641 C-0.11327151 61.445607 -0.10549192 59.09197683 -0.09765625 56.73828125 C-0.0957911 55.10589135 -0.09436765 53.47350089 -0.09336853 51.84111023 C-0.08955101 47.54538425 -0.07972724 43.24969211 -0.06866455 38.95397949 C-0.05843399 34.57023577 -0.05386738 30.18648659 -0.04882812 25.80273438 C-0.0381043 17.20180567 -0.02051368 8.60091094 0 0 Z " fill="#059C4F" transform="translate(278,17)"/>
<path d="M0 0 C1.11117187 -0.01160156 2.22234375 -0.02320313 3.3671875 -0.03515625 C15.38748814 0.00726834 26.41204789 2.90427124 35.1953125 11.53125 C40.4414224 17.67498326 44.42846329 24.70342813 47 32.375 C46.67 33.365 46.34 34.355 46 35.375 C44.97261719 34.84390625 43.94523437 34.3128125 42.88671875 33.765625 C22.12997079 23.13467163 3.1846148 19.44489089 -20 22.375 C-18.83726563 22.52195312 -17.67453125 22.66890625 -16.4765625 22.8203125 C-1.66454073 24.83488478 11.98813095 28.49294686 25.3125 35.375 C25.91674805 35.68268311 26.52099609 35.99036621 27.14355469 36.30737305 C31.51460212 38.70325808 34.04317272 41.46954709 37 45.375 C26.32644799 54.14661588 15.66226381 56.50104814 2 55.375 C-8.35056251 53.62897064 -18.14641432 49.03380802 -27.76708984 44.99267578 C-36.61398559 41.32759328 -45.62909832 38.32045406 -55.25 37.6875 C-56.16265625 37.62175781 -57.0753125 37.55601563 -58.015625 37.48828125 C-58.67046875 37.45089844 -59.3253125 37.41351563 -60 37.375 C-52.6895307 20.92644408 -39.37652577 10.13579032 -23 3.375 C-15.29723289 0.41239727 -8.20740948 -0.08569221 0 0 Z " fill="#039B4D" transform="translate(105,62.625)"/>
<path d="M0 0 C0.50615298 1.26839526 1.00469099 2.53983102 1.5 3.8125 C1.7784375 4.52019531 2.056875 5.22789063 2.34375 5.95703125 C3 8 3 8 3 11 C6.42719677 11.42670632 9.58922573 11.61455392 13 11 C14.88291407 9.32264424 16.17154419 7.5460635 17.64453125 5.5078125 C19 4 19 4 21.9375 3.8125 C25.5778979 5.22408286 28.6810618 6.94225832 32 9 C31.86980469 9.81984375 31.73960938 10.6396875 31.60546875 11.484375 C30.62558628 17.96495022 30.62558628 17.96495022 32.6875 23.9375 C38.18331711 25.70030926 42.56444921 23.67247717 48 22 C50.64 25.3 53.28 28.6 56 32 C54 36 54 36 51.1875 38.6875 C48.6928572 41.65743835 48.6928572 41.65743835 49.34375 44.2109375 C50.15257587 46.55903176 50.15257587 46.55903176 51.16796875 48.75390625 C52.11111167 51.29994935 52.1372842 53.3063894 52 56 C51.07380859 55.52820312 51.07380859 55.52820312 50.12890625 55.046875 C49.28199219 54.61890625 48.43507813 54.1909375 47.5625 53.75 C46.65113281 53.28722656 45.73976563 52.82445312 44.80078125 52.34765625 C42.31285407 51.15053648 39.82792897 50.16684951 37.25 49.1875 C32.97457384 47.33057235 31.09062624 44.87938195 28.5078125 41.08984375 C23.19896706 33.73172896 16.55252448 30.47013906 8 28 C7.34644531 27.80792969 6.69289063 27.61585937 6.01953125 27.41796875 C-4.82237856 25.17409186 -14.49316456 28.06448152 -23.75 33.6875 C-31.32081104 39.09135261 -36.85763799 46.91044096 -39 56 C-39.09984355 58.49878721 -39.15982705 60.99937199 -39.1875 63.5 C-39.45989399 70.77365575 -41.58956205 74.08251219 -46.7734375 79.046875 C-47.50820313 79.69140625 -48.24296875 80.3359375 -49 81 C-50.00657153 81.993385 -51.00963015 82.99046171 -52 84 C-52.33 82.68 -52.66 81.36 -53 80 C-53.85464844 79.93941406 -54.70929687 79.87882812 -55.58984375 79.81640625 C-57.24693359 79.69072266 -57.24693359 79.69072266 -58.9375 79.5625 C-60.59072266 79.44068359 -60.59072266 79.44068359 -62.27734375 79.31640625 C-65 79 -65 79 -66 78 C-66.07271741 75.64686445 -66.08370868 73.29166332 -66.0625 70.9375 C-66.05347656 69.64714844 -66.04445313 68.35679688 -66.03515625 67.02734375 C-66.02355469 66.02832031 -66.01195313 65.02929688 -66 64 C-64.73160474 63.49384702 -63.46016898 62.99530901 -62.1875 62.5 C-61.47980469 62.2215625 -60.77210937 61.943125 -60.04296875 61.65625 C-58 61 -58 61 -55 61 C-54.48797471 57.86384508 -54.32860703 55.12000263 -55 52 C-57.33188764 49.17718864 -60.0008706 47.08198492 -63 45 C-62.42655667 41.55330375 -61.56138422 38.77811835 -59.9375 35.6875 C-59.57527344 34.99011719 -59.21304688 34.29273438 -58.83984375 33.57421875 C-58.42412109 32.79498047 -58.42412109 32.79498047 -58 32 C-57.09636719 32.11859375 -56.19273438 32.2371875 -55.26171875 32.359375 C-54.08222656 32.48828125 -52.90273438 32.6171875 -51.6875 32.75 C-50.51574219 32.88921875 -49.34398437 33.0284375 -48.13671875 33.171875 C-44.94839704 33.33036918 -44.94839704 33.33036918 -43.06640625 31.22265625 C-41.47594956 27.90774835 -42.27763196 25.55164287 -43 22 C-43.33333333 19.66666667 -43.66666667 17.33333333 -44 15 C-42.59447701 13.96387729 -41.17508306 12.94655075 -39.75 11.9375 C-38.96109375 11.36902344 -38.1721875 10.80054688 -37.359375 10.21484375 C-35 9 -35 9 -32.87109375 9.1484375 C-31 10 -31 10 -28.3125 12.6875 C-26.22649952 14.56436418 -25.46307135 15.02273673 -22.61328125 14.8828125 C-20.3791848 14.370759 -18.1841312 13.69495084 -16 13 C-15.67 9.04 -15.34 5.08 -15 1 C-9.9557674 0.38857787 -5.08980768 -0.13050789 0 0 Z " fill="#F0871B" transform="translate(90,3)"/>
<path d="M0 0 C5.28 0 10.56 0 16 0 C16 33.33 16 66.66 16 101 C10.72 101 5.44 101 0 101 C0 67.67 0 34.34 0 0 Z " fill="#019A4B" transform="translate(384,17)"/>
<path d="M0 0 C2.31 0 4.62 0 7 0 C7.66 1.65 8.32 3.3 9 5 C12.37462715 4.45276317 14.08235 3.9451 17 2 C18.65 2.99 20.3 3.98 22 5 C21.67 7.31 21.34 9.62 21 12 C9.59390842 13.08078025 9.59390842 13.08078025 4.1875 12.875 C-3.15248248 12.80875467 -7.58174987 16.46636214 -13 21 C-15.61889579 22.47342594 -18.27223348 23.73017765 -21 25 C-23.64705882 18.64705882 -23.64705882 18.64705882 -24 16 C-23.34 15.01 -22.68 14.02 -22 13 C-19.69 13.33 -17.38 13.66 -15 14 C-14.97421875 13.38511719 -14.9484375 12.77023438 -14.921875 12.13671875 C-14.45283019 5.45283019 -14.45283019 5.45283019 -11.9375 2.9375 C-11.298125 2.628125 -10.65875 2.31875 -10 2 C-9.1646875 2.4640625 -9.1646875 2.4640625 -8.3125 2.9375 C-5.87459567 4.05761821 -3.63775814 4.56037364 -1 5 C-0.67 3.35 -0.34 1.7 0 0 Z " fill="#F08A21" transform="translate(85,38)"/>
<path d="M0 0 C0.99 0 1.98 0 3 0 C3.99 0 4.98 0 6 0 C6 1.98 6 3.96 6 6 C7.98 6 9.96 6 12 6 C12 4.02 12 2.04 12 0 C13.32 0 14.64 0 16 0 C15.01 5.28 14.02 10.56 13 16 C12.01 16 11.02 16 10 16 C10.33 13.69 10.66 11.38 11 9 C8.69 9 6.38 9 4 9 C4 11.31 4 13.62 4 16 C2.35 16.33 0.7 16.66 -1 17 C-1 16.34 -1 15.68 -1 15 C-1.556875 15.33 -2.11375 15.66 -2.6875 16 C-5.38858329 17.16803602 -7.08537214 17.37367024 -10 17 C-11.8125 16 -11.8125 16 -13 14 C-13.51782249 8.64916763 -13.43887357 5.36472414 -10 1 C-6.83598119 -0.58200941 -3.46125163 -0.06168567 0 0 Z " fill="#E9E9E9" transform="translate(257,147)"/>
<path d="M0 0 C1.60875 -0.04125 3.2175 -0.0825 4.875 -0.125 C6.23238281 -0.15980469 6.23238281 -0.15980469 7.6171875 -0.1953125 C10 0 10 0 12 2 C12.66 1.34 13.32 0.68 14 0 C17.625 -0.125 17.625 -0.125 21 0 C20.67 0.99 20.34 1.98 20 3 C18.68 3 17.36 3 16 3 C15.67 3.99 15.34 4.98 15 6 C16.65 6.66 18.3 7.32 20 8 C20.47840532 13.3820598 20.47840532 13.3820598 18.5 15.9375 C15.52716258 17.2009559 13.50459423 16.8730816 10.37109375 16.328125 C5.93383351 15.71407251 1.47099412 15.94411257 -3 16 C-2.01 10.72 -1.02 5.44 0 0 Z " fill="#EFEFEF" transform="translate(359,147)"/>
<path d="M0 0 C0.79148437 -0.02578125 1.58296875 -0.0515625 2.3984375 -0.078125 C4.625 0.25 4.625 0.25 6.41796875 1.5234375 C8.19286805 4.06229022 7.69921795 6.30013504 7.2109375 9.24609375 C6.34224728 12.21701431 4.78983836 14.08516164 2.625 16.25 C-0.21583641 17.67041821 -2.22977278 17.56452272 -5.375 17.25 C-7.75 15.625 -7.75 15.625 -9.375 13.25 C-10.08587292 9.16248068 -9.54773765 7.54532565 -7.4375 3.9375 C-4.70101572 0.37177806 -4.39847648 0.08540731 0 0 Z " fill="#171717" transform="translate(330.375,146.75)"/>
<path d="M0 0 C8.27056461 2.03863617 16.10114411 4.82287673 24 8 C20.25 9.125 20.25 9.125 18 8 C17.7525 8.556875 17.505 9.11375 17.25 9.6875 C15.78393985 12.39971127 13.97010529 14.63587365 12 17 C6.71862571 16.48474397 3.42778844 14.74522883 -1 12 C-1.08196118 7.81998005 -0.89445704 4.07787895 0 0 Z " fill="#F08A22" transform="translate(57,113)"/>
<path d="M0 0 C1.588125 -0.061875 3.17625 -0.12375 4.8125 -0.1875 C6.15248047 -0.23970703 6.15248047 -0.23970703 7.51953125 -0.29296875 C10 0 10 0 11.82421875 1.234375 C13.75758323 4.13763329 13.14589286 6.51401323 12.62109375 9.8359375 C12 12 12 12 10.0625 14.5625 C5.56895796 16.67171361 1.93741704 16.26332891 -3 16 C-2.01 10.72 -1.02 5.44 0 0 Z " fill="#0E0E0E" transform="translate(307,147)"/>
<path d="M0 0 C1.45792884 -0.05399736 2.91642712 -0.09279177 4.375 -0.125 C5.18710938 -0.14820313 5.99921875 -0.17140625 6.8359375 -0.1953125 C9 0 9 0 11 2 C10.625 4.625 10.625 4.625 10 7 C9.01 7.33 8.02 7.66 7 8 C7.33 8.7425 7.66 9.485 8 10.25 C9 13 9 13 9 17 C7.68 16.67 6.36 16.34 5 16 C4.67 14.35 4.34 12.7 4 11 C3.01 10.67 2.02 10.34 1 10 C0.67 12.31 0.34 14.62 0 17 C-0.99 17 -1.98 17 -3 17 C-2.54775239 11.08507728 -1.8417395 5.64800112 0 0 Z " fill="#111111" transform="translate(158,147)"/>
<path d="M0 0 C2.375 0.1875 2.375 0.1875 5 1 C6.59660706 3.88909849 7 5.69058796 7 9 C7.66 9 8.32 9 9 9 C9.33 6.03 9.66 3.06 10 0 C10.99 0 11.98 0 13 0 C12.85764543 1.72945653 12.71095618 3.45855654 12.5625 5.1875 C12.48128906 6.15042969 12.40007812 7.11335937 12.31640625 8.10546875 C12.02333849 10.78649602 11.57296246 13.3662986 11 16 C9.35 16 7.7 16 6 16 C4.68 13.03 3.36 10.06 2 7 C1.731875 8.464375 1.46375 9.92875 1.1875 11.4375 C0.73046875 13.93359375 0.73046875 13.93359375 0 16 C-0.99 16.33 -1.98 16.66 -3 17 C-2.54775239 11.08507728 -1.8417395 5.64800112 0 0 Z " fill="#171717" transform="translate(342,147)"/>
<path d="M0 0 C1.65 0 3.3 0 5 0 C5.99 2.64 6.98 5.28 8 8 C8.99 5.36 9.98 2.72 11 0 C11.99 0 12.98 0 14 0 C13.68806536 1.72926874 13.37542638 3.45841044 13.0625 5.1875 C12.88847656 6.15042969 12.71445313 7.11335937 12.53515625 8.10546875 C12.0476265 10.74239972 11.53328895 13.3719905 11 16 C9.35 16 7.7 16 6 16 C5.01 13.03 4.02 10.06 3 7 C2.01 10.3 1.02 13.6 0 17 C-0.99 17 -1.98 17 -3 17 C-2.54775239 11.08507728 -1.8417395 5.64800112 0 0 Z " fill="#141414" transform="translate(196,147)"/>
<path d="M0 0 C1.65 0 3.3 0 5 0 C5.99 2.64 6.98 5.28 8 8 C8.99 5.36 9.98 2.72 11 0 C11.99 0.33 12.98 0.66 14 1 C13.01 5.95 12.02 10.9 11 16 C9.35 16 7.7 16 6 16 C5.01 13.03 4.02 10.06 3 7 C2.01 9.97 1.02 12.94 0 16 C-0.99 16 -1.98 16 -3 16 C-2.68954268 14.0830014 -2.37655329 12.16641277 -2.0625 10.25 C-1.88847656 9.18265625 -1.71445313 8.1153125 -1.53515625 7.015625 C-1.11295829 4.63652407 -0.62797116 2.33084789 0 0 Z " fill="#131313" transform="translate(95,147)"/>
<path d="M0 0 C1.65 0 3.3 0 5 0 C7.29612756 11.52164009 7.29612756 11.52164009 7 17 C5.68 16.67 4.36 16.34 3 16 C3 15.01 3 14.02 3 13 C0.69 13 -1.62 13 -4 13 C-4.33 13.99 -4.66 14.98 -5 16 C-5.99 16 -6.98 16 -8 16 C-6.57250019 12.20950293 -4.83763458 8.72877544 -2.875 5.1875 C-2.33617187 4.21167969 -1.79734375 3.23585937 -1.2421875 2.23046875 C-0.83226562 1.49441406 -0.42234375 0.75835937 0 0 Z " fill="#303030" transform="translate(395,147)"/>
<path d="M0 0 C1.65 0 3.3 0 5 0 C5.66 5.61 6.32 11.22 7 17 C5.68 17 4.36 17 3 17 C3 15.68 3 14.36 3 13 C0.69 13 -1.62 13 -4 13 C-4.33 13.99 -4.66 14.98 -5 16 C-5.99 16 -6.98 16 -8 16 C-6.92109896 11.90017605 -5.22826253 8.31830802 -3.1875 4.625 C-2.70667969 3.75101563 -2.22585937 2.87703125 -1.73046875 1.9765625 C-0.87388672 0.99816406 -0.87388672 0.99816406 0 0 Z " fill="#303030" transform="translate(83,147)"/>
<path d="M0 0 C1.65 0.33 3.3 0.66 5 1 C5.99 3.97 6.98 6.94 8 10 C8.66 6.7 9.32 3.4 10 0 C10.99 0 11.98 0 13 0 C12.88487847 1.72985242 12.75744323 3.45888751 12.625 5.1875 C12.55539062 6.15042969 12.48578125 7.11335937 12.4140625 8.10546875 C11.99784147 11.01508938 11.20125904 13.32890774 10 16 C8.68 16 7.36 16 6 16 C4.68 12.7 3.36 9.4 2 6 C1.34 9.3 0.68 12.6 0 16 C-0.99 16 -1.98 16 -3 16 C-2.57910004 10.39538469 -2.08386889 5.27913453 0 0 Z " fill="#0F0F0F" transform="translate(290,147)"/>
<path d="M0 0 C1.65 0 3.3 0 5 0 C6.52106634 3.04213267 6.37429338 6.28047572 6.5625 9.625 C6.60568359 10.33140625 6.64886719 11.0378125 6.69335938 11.765625 C6.79944751 13.51018537 6.90022889 15.25506697 7 17 C6.01 17 5.02 17 4 17 C4 15.68 4 14.36 4 13 C1.6568787 13.25561323 -0.67843403 13.59270772 -3 14 C-3.33 14.66 -3.66 15.32 -4 16 C-5.32 15.67 -6.64 15.34 -8 15 C-5.36 10.05 -2.72 5.1 0 0 Z " fill="#131313" transform="translate(145,147)"/>
<path d="M0 0 C0 0.99 0 1.98 0 3 C-1.6396875 2.9071875 -1.6396875 2.9071875 -3.3125 2.8125 C-6.82823915 2.7228087 -6.82823915 2.7228087 -8.9375 4.0625 C-10.55479605 7.01168691 -10.18630138 9.70867559 -10 13 C-8.35 13.33 -6.7 13.66 -5 14 C-5 12.68 -5 11.36 -5 10 C-5.99 10 -6.98 10 -8 10 C-8 9.01 -8 8.02 -8 7 C-5.69 7 -3.38 7 -1 7 C-1.33 9.97 -1.66 12.94 -2 16 C-10.22787194 17.4519774 -10.22787194 17.4519774 -13.5625 15.5 C-15.57113229 12.00672645 -15.61705135 9.97655312 -15 6 C-11.2703383 -0.83771312 -7.37787318 -0.77360224 0 0 Z " fill="#1B1B1B" transform="translate(125,147)"/>
<path d="M0 0 C0 0.99 0 1.98 0 3 C-1.258125 2.9175 -2.51625 2.835 -3.8125 2.75 C-7.22917556 2.72512921 -7.22917556 2.72512921 -10 4.6875 C-11.13489245 7.3119388 -11.23590819 9.16910178 -11 12 C-9.35 12.33 -7.7 12.66 -6 13 C-5.67 11.68 -5.34 10.36 -5 9 C-5.99 9 -6.98 9 -8 9 C-8 8.34 -8 7.68 -8 7 C-5.69 7 -3.38 7 -1 7 C-1.75 14.75 -1.75 14.75 -4 17 C-11.20903955 17.572146 -11.20903955 17.572146 -13.72265625 15.75390625 C-15.74920871 12.97126999 -15.52780403 10.57342624 -15.4296875 7.2265625 C-14.74820192 3.69522812 -12.77924698 2.11752151 -10 0 C-6.7169902 -1.6415049 -3.57454967 -0.51888624 0 0 Z " fill="#141414" transform="translate(75,147)"/>
<path d="M0 0 C1.45792884 -0.05399736 2.91642712 -0.09279177 4.375 -0.125 C5.18710937 -0.14820313 5.99921875 -0.17140625 6.8359375 -0.1953125 C9 0 9 0 11 2 C10.85440577 5.42146435 10.61769562 7.33818327 8.25 9.875 C5.63695229 11.18152386 3.88466476 11.24038873 1 11 C0.67 12.98 0.34 14.96 0 17 C-0.99 17 -1.98 17 -3 17 C-2.48517081 11.147205 -1.54642808 5.6702363 0 0 Z " fill="#191919" transform="translate(24,147)"/>
<path d="M0 0 C6.93 0.495 6.93 0.495 14 1 C13.67 3.97 13.34 6.94 13 10 C12.01 9.67 11.02 9.34 10 9 C10 8.34 10 7.68 10 7 C9.34 7 8.68 7 8 7 C8 8.32 8 9.64 8 11 C4.7 11 1.4 11 -2 11 C-1.34 7.37 -0.68 3.74 0 0 Z " fill="#D2D2D2" transform="translate(325,171)"/>
<path d="M0 0 C0.99 0 1.98 0 3 0 C3 1.98 3 3.96 3 6 C4.98 6 6.96 6 9 6 C9 4.02 9 2.04 9 0 C10.32 0 11.64 0 13 0 C12.01 5.28 11.02 10.56 10 16 C9.01 16 8.02 16 7 16 C7.33 13.69 7.66 11.38 8 9 C5.69 9 3.38 9 1 9 C1 11.31 1 13.62 1 16 C-0.32 16 -1.64 16 -3 16 C-2.69075786 13.89535207 -2.3774944 11.7912947 -2.0625 9.6875 C-1.88847656 8.51574219 -1.71445312 7.34398437 -1.53515625 6.13671875 C-1 3 -1 3 0 0 Z " fill="#101010" transform="translate(260,147)"/>
<path d="M0 0 C1.32 0 2.64 0 4 0 C3.67 4.29 3.34 8.58 3 13 C4.65 12.67 6.3 12.34 8 12 C8.99 8.04 9.98 4.08 11 0 C11.99 0 12.98 0 14 0 C13.39030653 10.82731504 13.39030653 10.82731504 10 15 C6.54754176 17.30163882 5.05261287 17.34490322 1 17 C-1 15 -1 15 -1.23046875 12.79296875 C-1.08669596 4.07510987 -1.08669596 4.07510987 0 0 Z " fill="#151515" transform="translate(178,147)"/>
<path d="M0 0 C1.4540625 0.0309375 1.4540625 0.0309375 2.9375 0.0625 C2.9375 0.7225 2.9375 1.3825 2.9375 2.0625 C3.9275 1.4025 4.9175 0.7425 5.9375 0.0625 C8.125 0.4375 8.125 0.4375 9.9375 1.0625 C9.6075 1.7225 9.2775 2.3825 8.9375 3.0625 C7.9475 3.0625 6.9575 3.0625 5.9375 3.0625 C5.6075 4.7125 5.2775 6.3625 4.9375 8.0625 C5.9275 8.3925 6.9175 8.7225 7.9375 9.0625 C7.9375 9.7225 7.9375 10.3825 7.9375 11.0625 C3.0625 10.1875 3.0625 10.1875 1.9375 9.0625 C1.6075 9.7225 1.2775 10.3825 0.9375 11.0625 C-1.3725 11.0625 -3.6825 11.0625 -6.0625 11.0625 C-5.75467504 9.41578588 -5.44110766 7.77014424 -5.125 6.125 C-4.95097656 5.20847656 -4.77695312 4.29195312 -4.59765625 3.34765625 C-3.78895462 -0.10555875 -3.68748939 0.07525489 0 0 Z " fill="#C8C8C8" transform="translate(22.0625,170.9375)"/>
<path d="M0 0 C2.39782638 0.11152681 4.39644512 0.44616892 6.6875 1.125 C6.3575 3.765 6.0275 6.405 5.6875 9.125 C6.6775 9.125 7.6675 9.125 8.6875 9.125 C8.6875 9.785 8.6875 10.445 8.6875 11.125 C4.3975 11.125 0.1075 11.125 -4.3125 11.125 C-3.34275095 0.18068924 -3.34275095 0.18068924 0 0 Z " fill="#919191" transform="translate(102.3125,170.875)"/>
<path d="M0 0 C0 0.99 0 1.98 0 3 C-2.97 2.505 -2.97 2.505 -6 2 C-5.60196439 4.88575819 -5.20990931 5.82189513 -2.9375 7.75 C-2.298125 8.1625 -1.65875 8.575 -1 9 C-1.3125 11.875 -1.3125 11.875 -2 15 C-5.4352048 17.29013653 -6.985331 17.17842973 -11 17 C-11.33 15.68 -11.66 14.36 -12 13 C-10.02 13 -8.04 13 -6 13 C-6 12.01 -6 11.02 -6 10 C-6.66 9.54625 -7.32 9.0925 -8 8.625 C-10 7 -10 7 -10.5 4.5 C-10 2 -10 2 -8.375 0.125 C-5.23335013 -1.36314994 -3.30955864 -0.82738966 0 0 Z " fill="#191919" transform="translate(138,147)"/>
<path d="M0 0 C3.96538067 0.99134517 7.52468747 2.43078283 11.25 4.0625 C12.22453125 4.48499023 12.22453125 4.48499023 13.21875 4.91601562 C14.81369086 5.6079385 16.40700934 6.303599 18 7 C18 7.99 18 8.98 18 10 C13.38 10.33 8.76 10.66 4 11 C2.68 7.37 1.36 3.74 0 0 Z " fill="#F08B24" transform="translate(84,123)"/>
<path d="M0 0 C2.97 0 5.94 0 9 0 C9 0.66 9 1.32 9 2 C7.02 2.33 5.04 2.66 3 3 C2.67 3.99 2.34 4.98 2 6 C3.65 6 5.3 6 7 6 C7 6.99 7 7.98 7 9 C5.02 9 3.04 9 1 9 C1 10.65 1 12.3 1 14 C2.98 14 4.96 14 7 14 C7 14.66 7 15.32 7 16 C3.7 16 0.4 16 -3 16 C-2.88487847 14.27014758 -2.75744323 12.54111249 -2.625 10.8125 C-2.55539063 9.84957031 -2.48578125 8.88664063 -2.4140625 7.89453125 C-1.99784147 4.98491062 -1.20125904 2.67109226 0 0 Z " fill="#141414" transform="translate(234,147)"/>
<path d="M0 0 C3.3 0 6.6 0 10 0 C10 0.66 10 1.32 10 2 C7.69 2 5.38 2 3 2 C3 3.32 3 4.64 3 6 C4.65 6 6.3 6 8 6 C8 6.99 8 7.98 8 9 C6.02 9 4.04 9 2 9 C1.67 10.65 1.34 12.3 1 14 C2.98 14 4.96 14 7 14 C7 14.66 7 15.32 7 16 C3.7 16 0.4 16 -3 16 C-2.01 10.72 -1.02 5.44 0 0 Z " fill="#121212" transform="translate(359,147)"/>
<path d="M0 0 C1.670625 0.061875 1.670625 0.061875 3.375 0.125 C3.045 1.115 2.715 2.105 2.375 3.125 C1.055 3.125 -0.265 3.125 -1.625 3.125 C-1.955 4.115 -2.285 5.105 -2.625 6.125 C-0.15 7.115 -0.15 7.115 2.375 8.125 C2.85538431 13.52932346 2.85538431 13.52932346 0.8125 16.0625 C-2.59160729 17.54634164 -5.05961808 16.87921541 -8.625 16.125 C-8.625 15.135 -8.625 14.145 -8.625 13.125 C-6.315 13.125 -4.005 13.125 -1.625 13.125 C-2.64389939 10.85207059 -3.43402631 9.29475439 -5.3125 7.625 C-5.745625 7.13 -6.17875 6.635 -6.625 6.125 C-6.20893707 1.54830781 -4.61554728 0.1591568 0 0 Z " fill="#121212" transform="translate(376.625,146.875)"/>
<path d="M0 0 C0.99 0 1.98 0 3 0 C3 0.99 3 1.98 3 3 C3.66 3 4.32 3 5 3 C5 2.01 5 1.02 5 0 C7.31 0 9.62 0 12 0 C11.01 0.33 10.02 0.66 9 1 C8.67 3.97 8.34 6.94 8 10 C6.02 10 4.04 10 2 10 C2 9.01 2 8.02 2 7 C0.02 7.66 -1.96 8.32 -4 9 C-3.47557578 5.2241456 -2.67345333 2.77627845 0 0 Z " fill="#7D7D7D" transform="translate(235,172)"/>
<path d="M0 0 C1.65 0.33 3.3 0.66 5 1 C4.67 4.3 4.34 7.6 4 11 C1.69 10.67 -0.62 10.34 -3 10 C-3.66 8.35 -4.32 6.7 -5 5 C-5.66 6.65 -6.32 8.3 -7 10 C-7.33 10 -7.66 10 -8 10 C-7.67 7.03 -7.34 4.06 -7 1 C-5.02 1.495 -5.02 1.495 -3 2 C-3 2.99 -3 3.98 -3 5 C-2.34 5 -1.68 5 -1 5 C-0.67 3.35 -0.34 1.7 0 0 Z " fill="#141414" transform="translate(60,171)"/>
<path d="M0 0 C0 0.99 0 1.98 0 3 C-0.928125 2.9175 -1.85625 2.835 -2.8125 2.75 C-6.02305088 2.6763947 -6.02305088 2.6763947 -7.875 4.6875 C-9.16185671 7.33270547 -9.24213848 9.09433826 -9 12 C-5.52852158 12.74957157 -5.52852158 12.74957157 -2 13 C-2.33 13.99 -2.66 14.98 -3 16 C-9.34507042 17.31690141 -9.34507042 17.31690141 -11.9375 16.0625 C-13.6227545 12.79112362 -13.52652772 9.55406209 -13 6 C-9.86876041 -0.6894664 -6.76625434 -0.10913313 0 0 Z " fill="#0E0E0E" transform="translate(257,147)"/>
<path d="M0 0 C0.7425 0.2475 1.485 0.495 2.25 0.75 C2.57485323 7.89677104 2.57485323 7.89677104 0.25 10.75 C-2.8125 11.5625 -2.8125 11.5625 -5.75 11.75 C-6.75 10.75 -6.75 10.75 -7.0625 7.4375 C-6.75 3.75 -6.75 3.75 -5.0625 1.25 C-2.75 -0.25 -2.75 -0.25 0 0 Z " fill="#ECECEC" transform="translate(331.75,149.25)"/>
<path d="M0 0 C0.86625 0.37125 0.86625 0.37125 1.75 0.75 C1.42 1.41 1.09 2.07 0.75 2.75 C-0.24 2.75 -1.23 2.75 -2.25 2.75 C-2.58 4.4 -2.91 6.05 -3.25 7.75 C-1.6 7.75 0.05 7.75 1.75 7.75 C3.07 5.44 4.39 3.13 5.75 0.75 C6.74 0.75 7.73 0.75 8.75 0.75 C10.2283226 3.70664519 9.81032783 6.49229737 9.75 9.75 C9.09 9.75 8.43 9.75 7.75 9.75 C7.75 9.09 7.75 8.43 7.75 7.75 C6.43 7.75 5.11 7.75 3.75 7.75 C3.42 8.74 3.09 9.73 2.75 10.75 C-0.625 10.875 -0.625 10.875 -4.25 10.75 C-6.25 8.75 -6.25 8.75 -6.625 6.375 C-6.25 3.75 -6.25 3.75 -4.5 1.375 C-2.25 -0.25 -2.25 -0.25 0 0 Z " fill="#333333" transform="translate(72.25,171.25)"/>
<path d="M0 0 C4.29 0 8.58 0 13 0 C13 0.66 13 1.32 13 2 C11.35 2 9.7 2 8 2 C7.95101562 2.58007812 7.90203125 3.16015625 7.8515625 3.7578125 C7.40350595 8.43923092 6.701979 12.57485459 5 17 C4.01 17 3.02 17 2 17 C2.66 12.38 3.32 7.76 4 3 C2.68 3 1.36 3 0 3 C0 2.01 0 1.02 0 0 Z " fill="#1B1B1B" transform="translate(36,147)"/>
<path d="M0 0 C5 1 5 1 6 2 C6.40478183 5.64303647 6.45825163 7.37808707 4.25 10.375 C2 12 2 12 -2 12 C-1.34 8.04 -0.68 4.08 0 0 Z " fill="#EAEAEA" transform="translate(310,149)"/>
<path d="M0 0 C1.32 0 2.64 0 4 0 C4.66 1.32 5.32 2.64 6 4 C6.6496875 3.01 6.6496875 3.01 7.3125 2 C7.869375 1.34 8.42625 0.68 9 0 C9.99 0 10.98 0 12 0 C11.67 2.97 11.34 5.94 11 9 C10.34 9 9.68 9 9 9 C8.67 8.01 8.34 7.02 8 6 C7.01 7.485 7.01 7.485 6 9 C5.01 9 4.02 9 3 9 C2.67 8.01 2.34 7.02 2 6 C1.67 6.99 1.34 7.98 1 9 C0.34 9 -0.32 9 -1 9 C-0.67 6.03 -0.34 3.06 0 0 Z " fill="#272727" transform="translate(4,172)"/>
<path d="M0 0 C3.96 0 7.92 0 12 0 C12 0.66 12 1.32 12 2 C10.68 2.33 9.36 2.66 8 3 C7.01 7.29 6.02 11.58 5 16 C4.01 16 3.02 16 2 16 C2.14204741 14.41632253 2.28880153 12.83306682 2.4375 11.25 C2.51871094 10.36828125 2.59992188 9.4865625 2.68359375 8.578125 C2.96238465 6.30649548 3.38790577 4.20148177 4 2 C2.68 2 1.36 2 0 2 C0 1.34 0 0.68 0 0 Z " fill="#060606" transform="translate(219,147)"/>
<path d="M0 0 C1.32 0 2.64 0 4 0 C4.33 1.65 4.66 3.3 5 5 C5.433125 4.175 5.86625 3.35 6.3125 2.5 C6.869375 1.675 7.42625 0.85 8 0 C8.99 0 9.98 0 11 0 C10.67 2.97 10.34 5.94 10 9 C9.34 9 8.68 9 8 9 C8 7.35 8 5.7 8 4 C7.54625 4.825 7.0925 5.65 6.625 6.5 C6.08875 7.325 5.5525 8.15 5 9 C4.34 9 3.68 9 3 9 C2.67 8.01 2.34 7.02 2 6 C1.01 7.485 1.01 7.485 0 9 C-0.66 8.67 -1.32 8.34 -2 8 C-1.125 1.125 -1.125 1.125 0 0 Z " fill="#121212" transform="translate(219,172)"/>
<path d="M0 0 C2.0625 0.4375 2.0625 0.4375 4 1 C3.95875 1.9075 3.9175 2.815 3.875 3.75 C3.99903249 6.97484476 4.53133898 8.24626059 6 11 C6 12.32 6 13.64 6 15 C4.68 14.67 3.36 14.34 2 14 C1.896875 13.21625 1.79375 12.4325 1.6875 11.625 C1.22404978 8.66954819 1.22404978 8.66954819 -2 7 C-1.67 6.67 -1.34 6.34 -1 6 C-1 5.175 -1 4.35 -1 3.5 C-1 1 -1 1 0 0 Z " fill="#181818" transform="translate(161,149)"/>
<path d="M0 0 C1.32 0 2.64 0 4 0 C3.69075786 2.10464793 3.3774944 4.2087053 3.0625 6.3125 C2.88847656 7.48425781 2.71445313 8.65601563 2.53515625 9.86328125 C2 13 2 13 1 16 C0.01 16 -0.98 16 -2 16 C-2.2396943 10.36718401 -1.38529821 5.45461169 0 0 Z " fill="#1C1C1C" transform="translate(213,147)"/>
<path d="M0 0 C0.66 0 1.32 0 2 0 C1.67 3.3 1.34 6.6 1 10 C-0.98 10.33 -2.96 10.66 -5 11 C-5.625 8.6875 -5.625 8.6875 -6 6 C-5.34 5.01 -4.68 4.02 -4 3 C-2.68 3 -1.36 3 0 3 C0 2.01 0 1.02 0 0 Z " fill="#252525" transform="translate(289,171)"/>
<path d="M0 0 C0.99 0 1.98 0 3 0 C2.22095672 11.52164009 2.22095672 11.52164009 0 17 C-0.99 17 -1.98 17 -3 17 C-2.68985608 14.91631462 -2.3767948 12.83306332 -2.0625 10.75 C-1.88847656 9.58984375 -1.71445312 8.4296875 -1.53515625 7.234375 C-1.1272264 4.76893039 -0.66098697 2.40575438 0 0 Z " fill="#181818" transform="translate(384,147)"/>
<path d="M0 0 C0.99 0 1.98 0 3 0 C2.48517081 5.852795 1.54642808 11.3297637 0 17 C-0.99 17 -1.98 17 -3 17 C-2.54775239 11.08507728 -1.8417395 5.64800112 0 0 Z " fill="#171717" transform="translate(283,147)"/>
<path d="M0 0 C1.32 0 2.64 0 4 0 C4.33 0.99 4.66 1.98 5 3 C5.99 2.01 6.98 1.02 8 0 C8.125 6.75 8.125 6.75 7 9 C5.0625 8.6875 5.0625 8.6875 3 8 C2.67 7.01 2.34 6.02 2 5 C1.67 6.32 1.34 7.64 1 9 C0.34 9 -0.32 9 -1 9 C-0.67 6.03 -0.34 3.06 0 0 Z " fill="#2E2E2E" transform="translate(314,172)"/>
<path d="M0 0 C2.31 0 4.62 0 7 0 C6.67 2.97 6.34 5.94 6 9 C5.01 8.67 4.02 8.34 3 8 C3 7.34 3 6.68 3 6 C2.34 6 1.68 6 1 6 C1 6.99 1 7.98 1 9 C0.34 9 -0.32 9 -1 9 C-0.67 6.03 -0.34 3.06 0 0 Z " fill="#393939" transform="translate(332,172)"/>
<path d="M0 0 C2.31 0 4.62 0 7 0 C6.67 2.97 6.34 5.94 6 9 C5.34 9 4.68 9 4 9 C4 8.01 4 7.02 4 6 C3.01 6 2.02 6 1 6 C1 6.99 1 7.98 1 9 C0.34 9 -0.32 9 -1 9 C-0.67 6.03 -0.34 3.06 0 0 Z " fill="#141414" transform="translate(413,172)"/>
<path d="M0 0 C0.99 0 1.98 0 3 0 C3.66 1.32 4.32 2.64 5 4 C5.33 2.68 5.66 1.36 6 0 C6.66 0.33 7.32 0.66 8 1 C7.67 3.31 7.34 5.62 7 8 C5.68 8.33 4.36 8.66 3 9 C2.34 8.01 1.68 7.02 1 6 C0.67 7.32 0.34 8.64 0 10 C-0.66 10 -1.32 10 -2 10 C-1.125 2.25 -1.125 2.25 0 0 Z " fill="#2D2D2D" transform="translate(191,172)"/>
<path d="M0 0 C0.99 0.33 1.98 0.66 3 1 C3.33 3.97 3.66 6.94 4 10 C3.34 10 2.68 10 2 10 C2 9.34 2 8.68 2 8 C-0.31 8.66 -2.62 9.32 -5 10 C-3.35 6.7 -1.7 3.4 0 0 Z " fill="#1F1F1F" transform="translate(161,171)"/>
<path d="M0 0 C1.98 0 3.96 0 6 0 C6 3 6 6 6 9 C5.01 8.67 4.02 8.34 3 8 C3 7.34 3 6.68 3 6 C2.34 6 1.68 6 1 6 C1 6.99 1 7.98 1 9 C0.34 9 -0.32 9 -1 9 C-0.67 6.03 -0.34 3.06 0 0 Z " fill="#363636" transform="translate(137,172)"/>
<path d="M0 0 C0.66 0 1.32 0 2 0 C2 1.32 2 2.64 2 4 C2.99 4 3.98 4 5 4 C5 3.01 5 2.02 5 1 C5.66 1 6.32 1 7 1 C6.67 3.97 6.34 6.94 6 10 C5.34 10 4.68 10 4 10 C4 8.68 4 7.36 4 6 C3.01 6 2.02 6 1 6 C0.67 7.32 0.34 8.64 0 10 C-0.66 10 -1.32 10 -2 10 C-1.34 6.7 -0.68 3.4 0 0 Z " fill="#3B3B3B" transform="translate(34,171)"/>
<path d="M0 0 C1.67542976 0.28604898 3.34385343 0.61781233 5 1 C5.625 2.875 5.625 2.875 6 5 C5.34 5.66 4.68 6.32 4 7 C2.68 7 1.36 7 0 7 C0 7.99 0 8.98 0 10 C-0.66 10 -1.32 10 -2 10 C-1.85950482 8.52031676 -1.71245174 7.04125484 -1.5625 5.5625 C-1.48128906 4.73878906 -1.40007812 3.91507813 -1.31640625 3.06640625 C-1 1 -1 1 0 0 Z " fill="#626262" transform="translate(183,171)"/>
<path d="M0 0 C0.99 0 1.98 0 3 0 C3.33 2.97 3.66 5.94 4 9 C3.34 9 2.68 9 2 9 C2 8.34 2 7.68 2 7 C0.02463255 7.34786708 0.02463255 7.34786708 -2 8 C-2.33 8.66 -2.66 9.32 -3 10 C-3.66 10 -4.32 10 -5 10 C-3.86059291 6.14354522 -2.82205934 2.93494171 0 0 Z " fill="#333333" transform="translate(46,172)"/>
<path d="M0 0 C0.78375 0.04125 1.5675 0.0825 2.375 0.125 C2.045 2.435 1.715 4.745 1.375 7.125 C-0.28114657 7.50718767 -1.94957024 7.83895102 -3.625 8.125 C-4.625 7.125 -4.625 7.125 -4.8125 4.6875 C-4.54653904 1.05270021 -3.63803315 0.17323967 0 0 Z " fill="#7A7A7A" transform="translate(271.625,173.875)"/>
<path d="M0 0 C1.98 0 3.96 0 6 0 C6.625 1.875 6.625 1.875 7 4 C6.34 4.66 5.68 5.32 5 6 C3.68 6 2.36 6 1 6 C1 6.99 1 7.98 1 9 C0.34 9 -0.32 9 -1 9 C-0.67 6.03 -0.34 3.06 0 0 Z " fill="#181818" transform="translate(378,172)"/>
<path d="M0 0 C0.99 0 1.98 0 3 0 C3.33 3.3 3.66 6.6 4 10 C3.34 10 2.68 10 2 10 C2 9.01 2 8.02 2 7 C0.02 7.66 -1.96 8.32 -4 9 C-3.47557578 5.2241456 -2.67345333 2.77627845 0 0 Z " fill="#191919" transform="translate(235,172)"/>
<path d="M0 0 C0.99 0.33 1.98 0.66 3 1 C3 3.97 3 6.94 3 10 C2.67 9.34 2.34 8.68 2 8 C0.35 8 -1.3 8 -3 8 C-3 8.66 -3 9.32 -3 10 C-3.66 10 -4.32 10 -5 10 C-3.66511872 6.40608886 -2.03977277 3.24509304 0 0 Z " fill="#0D0D0D" transform="translate(344,171)"/>
<path d="M0 0 C1.98 0 3.96 0 6 0 C5.67 1.65 5.34 3.3 5 5 C3.35 5.33 1.7 5.66 0 6 C0 7.32 0 8.64 0 10 C-0.66 10 -1.32 10 -2 10 C-1.125 2.25 -1.125 2.25 0 0 Z " fill="#414141" transform="translate(387,172)"/>
<path d="M0 0 C1.2065625 0.0309375 1.2065625 0.0309375 2.4375 0.0625 C2.4375 0.7225 2.4375 1.3825 2.4375 2.0625 C1.4475 2.0625 0.4575 2.0625 -0.5625 2.0625 C-0.5625 2.7225 -0.5625 3.3825 -0.5625 4.0625 C0.0975 4.0625 0.7575 4.0625 1.4375 4.0625 C1.4375 4.7225 1.4375 5.3825 1.4375 6.0625 C0.1175 6.0625 -1.2025 6.0625 -2.5625 6.0625 C-2.5625 7.0525 -2.5625 8.0425 -2.5625 9.0625 C-1.2425 9.0625 0.0775 9.0625 1.4375 9.0625 C1.4375 9.7225 1.4375 10.3825 1.4375 11.0625 C-0.5425 11.0625 -2.5225 11.0625 -4.5625 11.0625 C-4.42207123 9.41619672 -4.27500671 7.77045821 -4.125 6.125 C-4.04378906 5.20847656 -3.96257812 4.29195312 -3.87890625 3.34765625 C-3.43241544 0.12300042 -3.2948538 0.08036229 0 0 Z " fill="#333333" transform="translate(102.5625,170.9375)"/>
<path d="M0 0 C0.94875 0.04125 1.8975 0.0825 2.875 0.125 C2.25625 0.33125 1.6375 0.5375 1 0.75 C-1.97153645 2.67275888 -2.25524659 4.79094527 -3.125 8.125 C-2.135 7.795 -1.145 7.465 -0.125 7.125 C0.205 6.465 0.535 5.805 0.875 5.125 C0.215 4.795 -0.445 4.465 -1.125 4.125 C0.195 4.125 1.515 4.125 2.875 4.125 C2.215 6.105 1.555 8.085 0.875 10.125 C-0.79111905 10.167721 -2.45882885 10.16563832 -4.125 10.125 C-5.125 9.125 -5.125 9.125 -5.3125 5.6875 C-5.07295419 1.13612956 -4.61081874 0.18443275 0 0 Z " fill="#252525" transform="translate(301.125,171.875)"/>
<path d="M0 0 C1.2065625 0.0309375 1.2065625 0.0309375 2.4375 0.0625 C2.625 2.9375 2.625 2.9375 2.4375 6.0625 C1.4475 6.7225 0.4575 7.3825 -0.5625 8.0625 C-1.8825 7.4025 -3.2025 6.7425 -4.5625 6.0625 C-3.48963568 0.08511307 -3.48963568 0.08511307 0 0 Z " fill="#E0E0E0" transform="translate(30.5625,172.9375)"/>
<path d="M0 0 C0.66 0 1.32 0 2 0 C1.39810427 7.34312796 1.39810427 7.34312796 -0.25 10.0625 C-2.75543711 11.40469845 -4.3509063 10.7875684 -7 10 C-7.125 6.625 -7.125 6.625 -7 3 C-6.34 2.34 -5.68 1.68 -5 1 C-5 3.64 -5 6.28 -5 9 C-4.01 9 -3.02 9 -2 9 C-1.34 6.03 -0.68 3.06 0 0 Z " fill="#2A2A2A" transform="translate(215,171)"/>
<path d="M0 0 C1.98 0 3.96 0 6 0 C4.68 0.33 3.36 0.66 2 1 C2 1.66 2 2.32 2 3 C2.99 3 3.98 3 5 3 C5 3.66 5 4.32 5 5 C3.68 5 2.36 5 1 5 C1 5.99 1 6.98 1 8 C1.99 8 2.98 8 4 8 C4 8.66 4 9.32 4 10 C2.02 10 0.04 10 -2 10 C-1.54177532 6.53058454 -1.10868317 3.32604951 0 0 Z " fill="#3B3B3B" transform="translate(114,172)"/>
<path d="M0 0 C1.2065625 0.0309375 1.2065625 0.0309375 2.4375 0.0625 C1.4475 0.3925 0.4575 0.7225 -0.5625 1.0625 C-0.5625 1.7225 -0.5625 2.3825 -0.5625 3.0625 C0.0975 3.0625 0.7575 3.0625 1.4375 3.0625 C1.4375 3.7225 1.4375 4.3825 1.4375 5.0625 C0.4475 5.0625 -0.5425 5.0625 -1.5625 5.0625 C-1.5625 6.0525 -1.5625 7.0425 -1.5625 8.0625 C-0.5725 8.0625 0.4175 8.0625 1.4375 8.0625 C1.4375 8.7225 1.4375 9.3825 1.4375 10.0625 C-0.5425 10.0625 -2.5225 10.0625 -4.5625 10.0625 C-4.42200482 8.58281676 -4.27495174 7.10375484 -4.125 5.625 C-4.04378906 4.80128906 -3.96257812 3.97757813 -3.87890625 3.12890625 C-3.4093501 0.06229881 -3.15462671 0.07694211 0 0 Z " fill="#3A3A3A" transform="translate(309.5625,171.9375)"/>
<path d="M0 0 C0.66 0 1.32 0 2 0 C1.67 2.64 1.34 5.28 1 8 C1.99 7.67 2.98 7.34 4 7 C5.22969878 3.48809191 5.22969878 3.48809191 6 0 C6.66 0 7.32 0 8 0 C7.125 7.875 7.125 7.875 6 9 C3.66702567 9.04092937 1.33294775 9.04241723 -1 9 C-0.67 6.03 -0.34 3.06 0 0 Z " fill="#101010" transform="translate(368,172)"/>
<path d="M0 0 C2.475 0.495 2.475 0.495 5 1 C4.67 4.3 4.34 7.6 4 11 C3.01 11 2.02 11 1 11 C0.12132271 7.26562152 -0.08912219 3.83225427 0 0 Z " fill="#E0E0E0" transform="translate(60,171)"/>
<path d="M0 0 C0.99 0 1.98 0 3 0 C2.57835981 1.98260599 2.13721222 3.96107245 1.6875 5.9375 C1.44386719 7.03964844 1.20023437 8.14179688 0.94921875 9.27734375 C0.63597656 10.17582031 0.32273437 11.07429687 0 12 C-0.99 12.33 -1.98 12.66 -3 13 C-2.88557539 11.39504433 -2.75805306 9.79101881 -2.625 8.1875 C-2.55539062 7.29417969 -2.48578125 6.40085938 -2.4140625 5.48046875 C-2 3 -2 3 0 0 Z " fill="#2A2A2A" transform="translate(342,151)"/>
<path d="M0 0 C0.763125 0.0825 1.52625 0.165 2.3125 0.25 C1.9825 0.91 1.6525 1.57 1.3125 2.25 C0.3225 2.25 -0.6675 2.25 -1.6875 2.25 C-2.0175 4.23 -2.3475 6.21 -2.6875 8.25 C-1.3675 7.92 -0.0475 7.59 1.3125 7.25 C0.9825 8.24 0.6525 9.23 0.3125 10.25 C-1.3375 9.92 -2.9875 9.59 -4.6875 9.25 C-5.60804342 6.23731243 -5.96611489 4.82270838 -4.5625 1.9375 C-2.6875 0.25 -2.6875 0.25 0 0 Z " fill="#2E2E2E" transform="translate(256.6875,171.75)"/>
<path d="M0 0 C0.86625 0.37125 0.86625 0.37125 1.75 0.75 C1.42 1.41 1.09 2.07 0.75 2.75 C-0.24 2.75 -1.23 2.75 -2.25 2.75 C-2.58 4.4 -2.91 6.05 -3.25 7.75 C-2.26 8.08 -1.27 8.41 -0.25 8.75 C-0.25 9.41 -0.25 10.07 -0.25 10.75 C-5.125 9.875 -5.125 9.875 -6.25 8.75 C-6.70232976 5.40275979 -6.53236751 4.13321304 -4.5 1.375 C-2.25 -0.25 -2.25 -0.25 0 0 Z " fill="#2C2C2C" transform="translate(30.25,171.25)"/>
<path d="M0 0 C1.65 0 3.3 0 5 0 C3.68 0.33 2.36 0.66 1 1 C1 1.99 1 2.98 1 4 C1.99 4.33 2.98 4.66 4 5 C3.01 5 2.02 5 1 5 C1 5.99 1 6.98 1 8 C1.99 8 2.98 8 4 8 C4 8.66 4 9.32 4 10 C2.02 10 0.04 10 -2 10 C-1.34 6.7 -0.68 3.4 0 0 Z " fill="#292929" transform="translate(325,172)"/>
<path d="M0 0 C2.0625 0.4375 2.0625 0.4375 4 1 C2.68 1.33 1.36 1.66 0 2 C0.515625 2.391875 1.03125 2.78375 1.5625 3.1875 C2.036875 3.785625 2.51125 4.38375 3 5 C2.6875 7.6875 2.6875 7.6875 2 10 C0.68 10.33 -0.64 10.66 -2 11 C-2 10.01 -2 9.02 -2 8 C-1.01 8.33 -0.02 8.66 1 9 C1 8.01 1 7.02 1 6 C0.01 5.67 -0.98 5.34 -2 5 C-1.125 1.125 -1.125 1.125 0 0 Z " fill="#242424" transform="translate(362,171)"/>
<path d="M0 0 C0.598125 0.20625 1.19625 0.4125 1.8125 0.625 C1.173125 0.851875 0.53375 1.07875 -0.125 1.3125 C-2.45943661 2.47750896 -2.45943661 2.47750896 -2.9375 5.25 C-3.02 6.03375 -3.1025 6.8175 -3.1875 7.625 C-2.1975 8.285 -1.2075 8.945 -0.1875 9.625 C-2.0625 10.25 -2.0625 10.25 -4.1875 10.625 C-4.8475 9.965 -5.5075 9.305 -6.1875 8.625 C-6 5.125 -6 5.125 -5.1875 1.625 C-2.1875 -0.375 -2.1875 -0.375 0 0 Z " fill="#222222" transform="translate(155.1875,171.375)"/>
<path d="M0 0 C0.598125 0.20625 1.19625 0.4125 1.8125 0.625 C1.173125 0.851875 0.53375 1.07875 -0.125 1.3125 C-2.45943661 2.47750896 -2.45943661 2.47750896 -2.9375 5.25 C-3.02 6.03375 -3.1025 6.8175 -3.1875 7.625 C-2.1975 8.285 -1.2075 8.945 -0.1875 9.625 C-2.0625 10.25 -2.0625 10.25 -4.1875 10.625 C-4.8475 9.965 -5.5075 9.305 -6.1875 8.625 C-6 5.125 -6 5.125 -5.1875 1.625 C-2.1875 -0.375 -2.1875 -0.375 0 0 Z " fill="#222222" transform="translate(126.1875,171.375)"/>
<path d="M0 0 C0.125 7.625 0.125 7.625 -1 11 C-1.99 11 -2.98 11 -4 11 C-3.8864371 9.35333797 -3.75882619 7.70763918 -3.625 6.0625 C-3.55539063 5.14597656 -3.48578125 4.22945312 -3.4140625 3.28515625 C-3.27742187 2.53105469 -3.14078125 1.77695313 -3 1 C-1 0 -1 0 0 0 Z " fill="#272727" transform="translate(197,153)"/>
<path d="M0 0 C0.125 7.625 0.125 7.625 -1 11 C-1.99 11 -2.98 11 -4 11 C-3.8864371 9.35333797 -3.75882619 7.70763918 -3.625 6.0625 C-3.55539062 5.14597656 -3.48578125 4.22945312 -3.4140625 3.28515625 C-3.27742188 2.53105469 -3.14078125 1.77695313 -3 1 C-1 0 -1 0 0 0 Z " fill="#171717" transform="translate(291,152)"/>
<path d="M0 0 C1.65 0 3.3 0 5 0 C4.01 0.33 3.02 0.66 2 1 C2 1.66 2 2.32 2 3 C2.66 3 3.32 3 4 3 C4 3.66 4 4.32 4 5 C3.01 5 2.02 5 1 5 C1 5.99 1 6.98 1 8 C1.99 8.33 2.98 8.66 4 9 C2.02 9 0.04 9 -2 9 C-1.34 6.03 -0.68 3.06 0 0 Z " fill="#1E1E1E" transform="translate(406,172)"/>
<path d="M0 0 C1.98 0 3.96 0 6 0 C4.68 0.33 3.36 0.66 2 1 C2 1.66 2 2.32 2 3 C2.66 3 3.32 3 4 3 C4 3.66 4 4.32 4 5 C3.01 5 2.02 5 1 5 C1 5.99 1 6.98 1 8 C1.99 8.33 2.98 8.66 4 9 C2.35 9 0.7 9 -1 9 C-0.67 6.03 -0.34 3.06 0 0 Z " fill="#1B1B1B" transform="translate(201,172)"/>
<path d="M0 0 C1.98 0 3.96 0 6 0 C6 2.31 6 4.62 6 7 C5.34 7 4.68 7 4 7 C4 5.35 4 3.7 4 2 C3.01 2.495 3.01 2.495 2 3 C1.34786708 5.02463255 1.34786708 5.02463255 1 7 C0.34 7 -0.32 7 -1 7 C-0.67 4.69 -0.34 2.38 0 0 Z " fill="#222222" transform="translate(276,174)"/>
<path d="M0 0 C1.32 0 2.64 0 4 0 C4 1.98 4 3.96 4 6 C3.34 6 2.68 6 2 6 C1.01 7.485 1.01 7.485 0 9 C-0.66 8.67 -1.32 8.34 -2 8 C-1.125 1.125 -1.125 1.125 0 0 Z " fill="#2B2B2B" transform="translate(219,172)"/>
<path d="M0 0 C0.33 0.66 0.66 1.32 1 2 C0.2884375 2.6496875 0.2884375 2.6496875 -0.4375 3.3125 C-2.23686957 5.02309613 -2.23686957 5.02309613 -3 8 C-3.99 8 -4.98 8 -6 8 C-6.125 5.625 -6.125 5.625 -6 3 C-3.8614515 0.8614515 -2.86724686 0.57344937 0 0 Z " fill="#D4D4D4" transform="translate(304,172)"/>
<path d="M0 0 C1.98 0 3.96 0 6 0 C4.68 0.33 3.36 0.66 2 1 C2 1.99 2 2.98 2 4 C2.66 4.33 3.32 4.66 4 5 C3.01 5 2.02 5 1 5 C1 5.99 1 6.98 1 8 C1.99 8.33 2.98 8.66 4 9 C2.35 9 0.7 9 -1 9 C-0.67 6.03 -0.34 3.06 0 0 Z " fill="#111111" transform="translate(18,172)"/>
<path d="M0 0 C1.32 0 2.64 0 4 0 C4 1.98 4 3.96 4 6 C3.34 6 2.68 6 2 6 C1.67 6.99 1.34 7.98 1 9 C0.34 9 -0.32 9 -1 9 C-0.67 6.03 -0.34 3.06 0 0 Z " fill="#1B1B1B" transform="translate(4,172)"/>
<path d="M0 0 C2.64 0.33 5.28 0.66 8 1 C8 1.99 8 2.98 8 4 C5.03 4 2.06 4 -1 4 C-0.67 2.68 -0.34 1.36 0 0 Z " fill="#202020" transform="translate(67,146)"/>
<path d="M0 0 C0.33 1.65 0.66 3.3 1 5 C-0.65 5.33 -2.3 5.66 -4 6 C-4.33 4.35 -4.66 2.7 -5 1 C-2 0 -2 0 0 0 Z " fill="#828282" transform="translate(288,176)"/>
<path d="M0 0 C1.99954746 -0.04254356 4.00041636 -0.04080783 6 0 C7 1 7 1 7.0625 4.0625 C7.041875 5.031875 7.02125 6.00125 7 7 C6.01 6.67 5.02 6.34 4 6 C4 5.34 4 4.68 4 4 C3.34 4 2.68 4 2 4 C2 3.34 2 2.68 2 2 C1.34 1.34 0.68 0.68 0 0 Z " fill="#C9C9C9" transform="translate(406,171)"/>
<path d="M0 0 C0.66 0 1.32 0 2 0 C1.67 2.97 1.34 5.94 1 9 C1.66 9.33 2.32 9.66 3 10 C1.35 10 -0.3 10 -2 10 C-1.34 6.7 -0.68 3.4 0 0 Z " fill="#2A2A2A" transform="translate(351,171)"/>
<path d="M0 0 C1.99954746 -0.04254356 4.00041636 -0.04080783 6 0 C7 1 7 1 7.0625 4.0625 C7.041875 5.031875 7.02125 6.00125 7 7 C6.01 6.67 5.02 6.34 4 6 C4 5.34 4 4.68 4 4 C3.34 4 2.68 4 2 4 C2 3.34 2 2.68 2 2 C1.34 1.34 0.68 0.68 0 0 Z " fill="#CACACA" transform="translate(307,171)"/>
<path d="M0 0 C0.78375 0.04125 1.5675 0.0825 2.375 0.125 C2.045 1.445 1.715 2.765 1.375 4.125 C1.045 3.465 0.715 2.805 0.375 2.125 C-0.615 2.125 -1.605 2.125 -2.625 2.125 C-2.955 3.775 -3.285 5.425 -3.625 7.125 C-3.955 7.125 -4.285 7.125 -4.625 7.125 C-4.75 4.75 -4.75 4.75 -4.625 2.125 C-2.625 0.125 -2.625 0.125 0 0 Z " fill="#191919" transform="translate(271.625,173.875)"/>
<path d="M0 0 C0.66 0 1.32 0 2 0 C1.67 2.64 1.34 5.28 1 8 C1.99 8.33 2.98 8.66 4 9 C2.35 9 0.7 9 -1 9 C-0.67 6.03 -0.34 3.06 0 0 Z " fill="#1E1E1E" transform="translate(85,172)"/>
<path d="M0 0 C1.98 0.495 1.98 0.495 4 1 C3.67 2.32 3.34 3.64 3 5 C1.68 5.33 0.36 5.66 -1 6 C-0.67 4.02 -0.34 2.04 0 0 Z " fill="#E9E9E9" transform="translate(27,149)"/>
<path d="M0 0 C0.66 0.33 1.32 0.66 2 1 C1.67 3.31 1.34 5.62 1 8 C-0.32 8.33 -1.64 8.66 -3 9 C-3 7.35 -3 5.7 -3 4 C-2.34 4 -1.68 4 -1 4 C-0.67 2.68 -0.34 1.36 0 0 Z " fill="#171717" transform="translate(197,172)"/>
<path d="M0 0 C0.99 0 1.98 0 3 0 C3.33 2.64 3.66 5.28 4 8 C3.34 8 2.68 8 2 8 C2 7.01 2 6.02 2 5 C1.01 4.67 0.02 4.34 -1 4 C-0.67 2.68 -0.34 1.36 0 0 Z " fill="#6C6C6C" transform="translate(415,173)"/>
<path d="M0 0 C0.66 0 1.32 0 2 0 C1.67 2.64 1.34 5.28 1 8 C1.99 8.33 2.98 8.66 4 9 C2.35 9 0.7 9 -1 9 C-0.67 6.03 -0.34 3.06 0 0 Z " fill="#171717" transform="translate(395,172)"/>
<path d="M0 0 C0.99 0.33 1.98 0.66 3 1 C2.67 2.98 2.34 4.96 2 7 C1.01 7 0.02 7 -1 7 C-1.04254356 5.00045254 -1.04080783 2.99958364 -1 1 C-0.67 0.67 -0.34 0.34 0 0 Z " fill="#5B5B5B" transform="translate(344,171)"/>
<path d="M0 0 C1.98 0.495 1.98 0.495 4 1 C3.67 2.32 3.34 3.64 3 5 C1.68 5 0.36 5 -1 5 C-0.67 3.35 -0.34 1.7 0 0 Z " fill="#DBDBDB" transform="translate(161,149)"/>
<path d="M0 0 C0.33 0 0.66 0 1 0 C1.125 6.75 1.125 6.75 0 9 C-0.99 9 -1.98 9 -3 9 C-2.30058404 5.85262818 -1.23921302 2.97411124 0 0 Z " fill="#191919" transform="translate(321,172)"/>
<path d="M0 0 C0.66 0 1.32 0 2 0 C1.67 2.97 1.34 5.94 1 9 C0.34 9 -0.32 9 -1 9 C-1.33 7.35 -1.66 5.7 -2 4 C-1.34 4 -0.68 4 0 4 C0 2.68 0 1.36 0 0 Z " fill="#1E1E1E" transform="translate(39,172)"/>
<path d="M0 0 C0 1.65 0 3.3 0 5 C0.66 5.33 1.32 5.66 2 6 C-0.38564077 5.42415568 -2.66682784 4.77772405 -5 4 C-5 3.01 -5 2.02 -5 1 C-1.125 0 -1.125 0 0 0 Z " fill="#E9E9E9" transform="translate(412,176)"/>
<path d="M0 0 C1.65 0 3.3 0 5 0 C5 0.66 5 1.32 5 2 C4.01 2 3.02 2 2 2 C2 2.66 2 3.32 2 4 C2.66 4.33 3.32 4.66 4 5 C2.35 5 0.7 5 -1 5 C-0.67 3.35 -0.34 1.7 0 0 Z " fill="#535353" transform="translate(100,171)"/>
<path d="M0 0 C0.66 0 1.32 0 2 0 C1.67 2.97 1.34 5.94 1 9 C0.34 9 -0.32 9 -1 9 C-0.67 6.03 -0.34 3.06 0 0 Z " fill="#272727" transform="translate(63,172)"/>
<path d="M0 0 C0.66 0 1.32 0 2 0 C1.67 2.64 1.34 5.28 1 8 C0.01 8 -0.98 8 -2 8 C-1.34 5.36 -0.68 2.72 0 0 Z " fill="#2E2E2E" transform="translate(374,172)"/>
<path d="M0 0 C1.43088528 2.86177057 0.59991697 4.93375773 0 8 C-1.5 6.625 -1.5 6.625 -3 5 C-3 4.34 -3 3.68 -3 3 C-3.66 3 -4.32 3 -5 3 C-5 2.34 -5 1.68 -5 1 C-3.35 0.67 -1.7 0.34 0 0 Z " fill="#D2D2D2" transform="translate(208,172)"/>
<path d="M0 0 C0.99 0.33 1.98 0.66 3 1 C3 2.32 3 3.64 3 5 C1.35 5 -0.3 5 -2 5 C-1.34 3.35 -0.68 1.7 0 0 Z " fill="#575757" transform="translate(234,173)"/>
<path d="M0 0 C0.33 0 0.66 0 1 0 C1 2.31 1 4.62 1 7 C0.01 7.33 -0.98 7.66 -2 8 C-1.125 1.125 -1.125 1.125 0 0 Z " fill="#151515" transform="translate(341,156)"/>
<path d="M0 0 C0.33 0 0.66 0 1 0 C1 2.31 1 4.62 1 7 C-0.32 7 -1.64 7 -3 7 C-1.125 1.125 -1.125 1.125 0 0 Z " fill="#D7D7D7" transform="translate(147,150)"/>
<path d="M0 0 C0.66 0 1.32 0 2 0 C1.67 2.97 1.34 5.94 1 9 C0.01 7.68 -0.98 6.36 -2 5 C-1.34 4.67 -0.68 4.34 0 4 C0 2.68 0 1.36 0 0 Z " fill="#363636" transform="translate(59,172)"/>
<path d="M0 0 C0.185625 0.9590625 0.185625 0.9590625 0.375 1.9375 C0.684375 2.9584375 0.684375 2.9584375 1 4 C1.66 4.33 2.32 4.66 3 5 C2.01 5 1.02 5 0 5 C0 5.99 0 6.98 0 8 C-0.66 8 -1.32 8 -2 8 C-1.125 1.125 -1.125 1.125 0 0 Z " fill="#111111" transform="translate(183,173)"/>
<path d="M0 0 C0.66 0.33 1.32 0.66 2 1 C1.67 3.31 1.34 5.62 1 8 C0.01 8.33 -0.98 8.66 -2 9 C-1.34 6.03 -0.68 3.06 0 0 Z " fill="#212121" transform="translate(402,172)"/>
<path d="M0 0 C0.99 0.33 1.98 0.66 3 1 C3 1.66 3 2.32 3 3 C2.34 3 1.68 3 1 3 C1 4.32 1 5.64 1 7 C0.34 7 -0.32 7 -1 7 C-1.625 5.1875 -1.625 5.1875 -2 3 C-1.34 2.01 -0.68 1.02 0 0 Z " fill="#616161" transform="translate(161,171)"/>
<path d="M0 0 C2.31 0 4.62 0 7 0 C7 0.99 7 1.98 7 3 C4.36 3 1.72 3 -1 3 C-0.67 2.01 -0.34 1.02 0 0 Z " fill="#070707" transform="translate(118,147)"/>
<path d="M0 0 C1.32 0 2.64 0 4 0 C4.33 0.99 4.66 1.98 5 3 C4.01 3.66 3.02 4.32 2 5 C1.34 4.67 0.68 4.34 0 4 C0 2.68 0 1.36 0 0 Z " fill="#828282" transform="translate(380,173)"/>
<path d="M0 0 C1.35439668 2.70879335 1.06501451 5.00933268 1 8 C0.34 8 -0.32 8 -1 8 C-1.66 7.34 -2.32 6.68 -3 6 C-2.75 3.4375 -2.75 3.4375 -2 1 C-1.34 0.67 -0.68 0.34 0 0 Z " fill="#C2C2C2" transform="translate(145,174)"/>
<path d="M0 0 C1.65 0 3.3 0 5 0 C5 1.65 5 3.3 5 5 C2.5 3.625 2.5 3.625 0 2 C0 1.34 0 0.68 0 0 Z " fill="#E6E6E5" transform="translate(362,173)"/>
</svg>
